<svg width="20" height="18" viewBox="0 0 20 18" fill="none" xmlns="http://www.w3.org/2000/svg">
<path fill-rule="evenodd" clip-rule="evenodd" d="M0.171875 0.999399C0.171875 0.553157 0.533625 0.191406 0.979867 0.191406C1.42611 0.191406 1.78786 0.553157 1.78786 0.999399V15.8235H18.7444C19.1906 15.8235 19.5524 16.1852 19.5524 16.6315C19.5524 17.0777 19.1906 17.4395 18.7444 17.4395H1.78786V17.4401C1.7721 17.4401 1.7564 17.4399 1.74076 17.4395H1.17187C0.619589 17.4395 0.171875 16.9917 0.171875 16.4395V15.8241V15.8235V0.999399ZM17.4172 4.10571C17.6621 3.86076 17.9566 3.73828 18.3006 3.73828C18.6445 3.73828 18.939 3.86076 19.184 4.10571C19.4289 4.35066 19.5514 4.64512 19.5514 4.98909C19.5514 5.33306 19.4289 5.62752 19.184 5.87248C18.939 6.11743 18.6445 6.2399 18.3006 6.2399C18.1234 6.2399 17.9566 6.20342 17.8002 6.13045L14.5481 8.92914V8.99168C14.5481 9.08549 14.5377 9.1793 14.5169 9.27311C14.496 9.36692 14.4648 9.45552 14.4231 9.53891C14.3814 9.6223 14.3319 9.70047 14.2745 9.77344C14.2172 9.8464 14.1521 9.91155 14.0791 9.96888C14.0061 10.0262 13.9279 10.0757 13.8446 10.1174C13.7612 10.1591 13.6726 10.1904 13.5788 10.2112C13.485 10.2321 13.3911 10.2425 13.2973 10.2425C13.1306 10.2425 12.969 10.2086 12.8126 10.1409C12.6563 10.0731 12.5234 9.98451 12.4139 9.87507C12.3045 9.76562 12.2159 9.63533 12.1481 9.48419C12.0804 9.33305 12.0465 9.17409 12.0465 9.00732L9.71689 7.83468C9.59181 7.95976 9.45109 8.05879 9.29474 8.13175C9.13839 8.20471 8.97161 8.2412 8.79442 8.2412C8.67976 8.2412 8.55468 8.22035 8.41917 8.17866L5.94882 11.0242C6.01136 11.1806 6.04263 11.3369 6.04263 11.4933C6.04263 11.8373 5.92016 12.1317 5.67521 12.3767C5.43026 12.6216 5.1358 12.7441 4.79183 12.7441C4.44785 12.7441 4.15339 12.6216 3.90844 12.3767C3.66349 12.1317 3.54102 11.8373 3.54102 11.4933C3.54102 11.1493 3.66349 10.8549 3.90844 10.6099C4.15339 10.365 4.44785 10.2425 4.79183 10.2425C4.93775 10.2425 5.08368 10.2685 5.22961 10.3207L7.66869 7.52198C7.5853 7.34478 7.54361 7.16758 7.54361 6.99039C7.54361 6.76107 7.59833 6.55 7.70778 6.35716C7.81722 6.16433 7.96836 6.01319 8.16119 5.90375C8.35403 5.7943 8.5651 5.73958 8.79442 5.73958C9.12796 5.73958 9.412 5.85163 9.64653 6.07573C9.88106 6.29984 10.0087 6.57345 10.0296 6.89658L12.4218 8.10048C12.6719 7.86074 12.9638 7.74087 13.2973 7.74087C13.5788 7.74087 13.8393 7.83468 14.0791 8.0223L17.1279 5.3956C17.0758 5.24968 17.0498 5.11417 17.0498 4.98909C17.0498 4.64512 17.1722 4.35066 17.4172 4.10571Z" fill="white"/>
<path d="M1.78786 15.8235H1.73786V15.8735H1.78786V15.8235ZM1.78786 17.4395V17.3895H1.73786V17.4395H1.78786ZM1.78786 17.4401V17.4901H1.83786V17.4401H1.78786ZM1.74076 17.4395L1.74219 17.3895H1.74076V17.4395ZM19.184 4.10571L19.1486 4.14106L19.1486 4.14106L19.184 4.10571ZM19.184 5.87248L19.1486 5.83712L19.1486 5.83712L19.184 5.87248ZM17.8002 6.13045L17.8214 6.08515L17.7921 6.07148L17.7676 6.09256L17.8002 6.13045ZM14.5481 8.92914L14.5155 8.89124L14.4981 8.9062V8.92914H14.5481ZM14.5169 9.27311L14.4681 9.26227L14.4681 9.26227L14.5169 9.27311ZM14.0791 9.96888L14.0482 9.92956L14.0482 9.92956L14.0791 9.96888ZM13.8446 10.1174L13.8669 10.1621L13.8669 10.1621L13.8446 10.1174ZM12.8126 10.1409L12.7928 10.1867L12.7928 10.1867L12.8126 10.1409ZM12.1481 9.48419L12.1025 9.50464L12.1025 9.50464L12.1481 9.48419ZM12.0465 9.00732H12.0965V8.97651L12.069 8.96266L12.0465 9.00732ZM9.71689 7.83468L9.73937 7.79002L9.70709 7.77377L9.68153 7.79933L9.71689 7.83468ZM8.41917 8.17866L8.43388 8.13087L8.40276 8.12129L8.38142 8.14588L8.41917 8.17866ZM5.94882 11.0242L5.91107 10.9915L5.89107 11.0145L5.9024 11.0428L5.94882 11.0242ZM3.90844 12.3767L3.9438 12.3413L3.9438 12.3413L3.90844 12.3767ZM3.90844 10.6099L3.9438 10.6453L3.9438 10.6453L3.90844 10.6099ZM5.22961 10.3207L5.21279 10.3678L5.2449 10.3792L5.2673 10.3535L5.22961 10.3207ZM7.66869 7.52198L7.70638 7.55483L7.72783 7.53022L7.71393 7.50069L7.66869 7.52198ZM8.16119 5.90375L8.18587 5.94723L8.18587 5.94723L8.16119 5.90375ZM9.64653 6.07573L9.68107 6.03958L9.68107 6.03958L9.64653 6.07573ZM10.0296 6.89658L9.97969 6.89979L9.98154 6.92837L10.0071 6.94124L10.0296 6.89658ZM12.4218 8.10048L12.3993 8.14514L12.4308 8.16103L12.4564 8.13658L12.4218 8.10048ZM14.0791 8.0223L14.0483 8.06168L14.0806 8.08699L14.1117 8.06018L14.0791 8.0223ZM17.1279 5.3956L17.1606 5.43348L17.1866 5.41109L17.175 5.37879L17.1279 5.3956ZM0.979867 0.141406C0.506011 0.141406 0.121875 0.525543 0.121875 0.999399H0.221875C0.221875 0.580772 0.56124 0.241406 0.979867 0.241406V0.141406ZM1.83786 0.999399C1.83786 0.525543 1.45372 0.141406 0.979867 0.141406V0.241406C1.39849 0.241406 1.73786 0.580771 1.73786 0.999399H1.83786ZM1.83786 15.8235V0.999399H1.73786V15.8235H1.83786ZM18.7444 15.7735H1.78786V15.8735H18.7444V15.7735ZM19.6024 16.6315C19.6024 16.1576 19.2182 15.7735 18.7444 15.7735V15.8735C19.163 15.8735 19.5024 16.2128 19.5024 16.6315H19.6024ZM18.7444 17.4895C19.2182 17.4895 19.6024 17.1053 19.6024 16.6315H19.5024C19.5024 17.0501 19.163 17.3895 18.7444 17.3895V17.4895ZM1.78786 17.4895H18.7444V17.3895H1.78786V17.4895ZM1.83786 17.4401V17.4395H1.73786V17.4401H1.83786ZM1.73933 17.4894C1.75545 17.4899 1.77163 17.4901 1.78786 17.4901V17.3901C1.77258 17.3901 1.75736 17.3899 1.74219 17.3895L1.73933 17.4894ZM1.17187 17.4895H1.74076V17.3895H1.17187V17.4895ZM0.121875 16.4395C0.121875 17.0194 0.591975 17.4895 1.17187 17.4895V17.3895C0.647203 17.3895 0.221875 16.9641 0.221875 16.4395H0.121875ZM0.121875 15.8241V16.4395H0.221875V15.8241H0.121875ZM0.121875 15.8235V15.8241H0.221875V15.8235H0.121875ZM0.121875 0.999399V15.8235H0.221875V0.999399H0.121875ZM18.3006 3.68828C17.9432 3.68828 17.6361 3.8161 17.3818 4.07035L17.4525 4.14106C17.6882 3.90541 17.97 3.78828 18.3006 3.78828V3.68828ZM19.2193 4.07035C18.9651 3.8161 18.6579 3.68828 18.3006 3.68828V3.78828C18.6312 3.78828 18.9129 3.90541 19.1486 4.14106L19.2193 4.07035ZM19.6014 4.98909C19.6014 4.63175 19.4736 4.3246 19.2193 4.07035L19.1486 4.14106C19.3842 4.37671 19.5014 4.65848 19.5014 4.98909H19.6014ZM19.2193 5.90783C19.4736 5.65358 19.6014 5.34643 19.6014 4.98909H19.5014C19.5014 5.3197 19.3842 5.60147 19.1486 5.83712L19.2193 5.90783ZM18.3006 6.2899C18.6579 6.2899 18.9651 6.16208 19.2193 5.90783L19.1486 5.83712C18.9129 6.07277 18.6312 6.1899 18.3006 6.1899V6.2899ZM17.7791 6.17576C17.9423 6.2519 18.1163 6.2899 18.3006 6.2899V6.1899C18.1305 6.1899 17.9709 6.15493 17.8214 6.08515L17.7791 6.17576ZM14.5808 8.96704L17.8329 6.16835L17.7676 6.09256L14.5155 8.89124L14.5808 8.96704ZM14.5981 8.99168V8.92914H14.4981V8.99168H14.5981ZM14.5657 9.28396C14.5873 9.18668 14.5981 9.08923 14.5981 8.99168H14.4981C14.4981 9.08176 14.4881 9.17193 14.4681 9.26227L14.5657 9.28396ZM14.4678 9.56127C14.5114 9.47412 14.544 9.38164 14.5657 9.28396L14.4681 9.26227C14.4481 9.35221 14.4181 9.43693 14.3783 9.51655L14.4678 9.56127ZM14.3138 9.80433C14.3733 9.7287 14.4246 9.64766 14.4678 9.56127L14.3783 9.51655C14.3381 9.59693 14.2904 9.67225 14.2352 9.74255L14.3138 9.80433ZM14.11 10.0082C14.1861 9.9484 14.254 9.88043 14.3138 9.80433L14.2352 9.74255C14.1803 9.81238 14.118 9.87469 14.0482 9.92956L14.11 10.0082ZM13.8669 10.1621C13.9533 10.1189 14.0343 10.0676 14.11 10.0082L14.0482 9.92956C13.9779 9.98479 13.9026 10.0325 13.8222 10.0727L13.8669 10.1621ZM13.5896 10.26C13.6873 10.2383 13.7798 10.2057 13.8669 10.1621L13.8222 10.0727C13.7426 10.1125 13.6579 10.1424 13.5679 10.1624L13.5896 10.26ZM13.2973 10.2925C13.3949 10.2925 13.4923 10.2816 13.5896 10.26L13.5679 10.1624C13.4776 10.1825 13.3874 10.1925 13.2973 10.1925V10.2925ZM12.7928 10.1867C12.9552 10.2572 13.1236 10.2925 13.2973 10.2925V10.1925C13.1375 10.1925 12.9827 10.1601 12.8325 10.095L12.7928 10.1867ZM12.3786 9.91042C12.4929 10.0247 12.6312 10.1167 12.7928 10.1867L12.8325 10.095C12.6814 10.0295 12.5539 9.94428 12.4493 9.83971L12.3786 9.91042ZM12.1025 9.50464C12.1726 9.66094 12.2646 9.79638 12.3786 9.91042L12.4493 9.83971C12.3445 9.73486 12.2592 9.60972 12.1938 9.46374L12.1025 9.50464ZM11.9965 9.00732C11.9965 9.18109 12.0319 9.34702 12.1025 9.50464L12.1938 9.46374C12.1289 9.31907 12.0965 9.16709 12.0965 9.00732H11.9965ZM9.69441 7.87934L12.024 9.05198L12.069 8.96266L9.73937 7.79002L9.69441 7.87934ZM9.31588 8.17706C9.47765 8.10157 9.62315 7.99913 9.75224 7.87004L9.68153 7.79933C9.56047 7.92039 9.42453 8.016 9.2736 8.08644L9.31588 8.17706ZM8.79442 8.2912C8.97872 8.2912 9.15273 8.2532 9.31588 8.17706L9.2736 8.08644C9.12405 8.15623 8.96451 8.1912 8.79442 8.1912V8.2912ZM8.40447 8.22644C8.54366 8.26927 8.67376 8.2912 8.79442 8.2912V8.1912C8.68576 8.1912 8.5657 8.17143 8.43388 8.13087L8.40447 8.22644ZM5.98658 11.057L8.45693 8.21143L8.38142 8.14588L5.91107 10.9915L5.98658 11.057ZM6.09263 11.4933C6.09263 11.3301 6.05997 11.1675 5.99525 11.0057L5.9024 11.0428C5.96276 11.1937 5.99263 11.3438 5.99263 11.4933H6.09263ZM5.71056 12.412C5.96482 12.1578 6.09263 11.8506 6.09263 11.4933H5.99263C5.99263 11.8239 5.8755 12.1057 5.63985 12.3413L5.71056 12.412ZM4.79183 12.7941C5.14916 12.7941 5.45631 12.6663 5.71056 12.412L5.63985 12.3413C5.40421 12.577 5.12243 12.6941 4.79183 12.6941V12.7941ZM3.87309 12.412C4.12734 12.6663 4.43449 12.7941 4.79183 12.7941V12.6941C4.46122 12.6941 4.17944 12.577 3.9438 12.3413L3.87309 12.412ZM3.49102 11.4933C3.49102 11.8506 3.61883 12.1578 3.87309 12.412L3.9438 12.3413C3.70815 12.1057 3.59102 11.8239 3.59102 11.4933H3.49102ZM3.87309 10.5746C3.61883 10.8288 3.49102 11.136 3.49102 11.4933H3.59102C3.59102 11.1627 3.70815 10.8809 3.9438 10.6453L3.87309 10.5746ZM4.79183 10.1925C4.43449 10.1925 4.12734 10.3203 3.87309 10.5746L3.9438 10.6453C4.17944 10.4096 4.46122 10.2925 4.79183 10.2925V10.1925ZM5.24643 10.2736C5.09544 10.2197 4.94383 10.1925 4.79183 10.1925V10.2925C4.93168 10.2925 5.07192 10.3174 5.21279 10.3678L5.24643 10.2736ZM7.63099 7.48913L5.19191 10.2878L5.2673 10.3535L7.70638 7.55483L7.63099 7.48913ZM7.49361 6.99039C7.49361 7.17569 7.53726 7.36012 7.62345 7.54327L7.71393 7.50069C7.63334 7.32944 7.59361 7.15948 7.59361 6.99039H7.49361ZM7.66429 6.33248C7.55042 6.53311 7.49361 6.75273 7.49361 6.99039H7.59361C7.59361 6.76941 7.64623 6.56689 7.75126 6.38184L7.66429 6.33248ZM8.13651 5.86026C7.93583 5.97416 7.77819 6.1318 7.66429 6.33248L7.75126 6.38184C7.85625 6.19686 8.00089 6.05222 8.18587 5.94723L8.13651 5.86026ZM8.79442 5.68958C8.55676 5.68958 8.33714 5.74639 8.13651 5.86026L8.18587 5.94723C8.37092 5.8422 8.57344 5.78958 8.79442 5.78958V5.68958ZM9.68107 6.03958C9.43695 5.80631 9.14043 5.68958 8.79442 5.68958V5.78958C9.1155 5.78958 9.38705 5.89694 9.61199 6.11188L9.68107 6.03958ZM10.0795 6.89336C10.0578 6.55769 9.92465 6.27233 9.68107 6.03958L9.61199 6.11188C9.83747 6.32734 9.95966 6.58921 9.97969 6.89979L10.0795 6.89336ZM12.4442 8.05582L10.0521 6.85191L10.0071 6.94124L12.3993 8.14514L12.4442 8.05582ZM13.2973 7.69087C12.9503 7.69087 12.6462 7.8161 12.3872 8.06438L12.4564 8.13658C12.6976 7.90538 12.9772 7.79087 13.2973 7.79087V7.69087ZM14.1099 7.98293C13.8621 7.78902 13.5909 7.69087 13.2973 7.69087V7.79087C13.5667 7.79087 13.8166 7.88034 14.0483 8.06168L14.1099 7.98293ZM17.0953 5.35772L14.0465 7.98442L14.1117 8.06018L17.1606 5.43348L17.0953 5.35772ZM16.9998 4.98909C16.9998 5.12109 17.0272 5.26234 17.0808 5.41242L17.175 5.37879C17.1244 5.23702 17.0998 5.10726 17.0998 4.98909H16.9998ZM17.3818 4.07035C17.1276 4.3246 16.9998 4.63175 16.9998 4.98909H17.0998C17.0998 4.65848 17.2169 4.37671 17.4525 4.14106L17.3818 4.07035Z" fill="white"/>
</svg>
