<svg width="19" height="19" viewBox="0 0 19 19" fill="none" xmlns="http://www.w3.org/2000/svg">
<path fill-rule="evenodd" clip-rule="evenodd" d="M1.21484 12.293C1.0625 11.7559 1.49414 11.2539 2.05273 11.2539C2.49023 11.2539 2.85938 11.5645 2.98828 11.9824C3.88867 14.9043 6.61719 17.041 9.82422 17.041C13.7598 17.041 16.9785 13.8203 16.9785 9.88672C16.9785 5.95312 13.7598 2.73438 9.82617 2.73438C7.58984 2.73438 5.53125 3.80664 4.2793 5.41602H6.24609C6.74023 5.41602 7.14062 5.81641 7.14062 6.31055C7.14062 6.80469 6.74023 7.20508 6.24609 7.20508H0.880859L0.882812 1.83789C0.882812 1.3457 1.2832 0.945312 1.77539 0.945312C2.26953 0.945312 2.66992 1.3457 2.66992 1.83789V4.52344C3.50195 3.41211 4.58203 2.50977 5.82422 1.88867C7.06641 1.26758 8.43555 0.945312 9.82422 0.945312C14.7422 0.945312 18.7676 4.96875 18.7676 9.88672C18.7676 14.8027 14.7422 18.8281 9.82422 18.8281C5.74023 18.8281 2.27344 16.0527 1.21484 12.293ZM9.78711 5.85352C9.92969 5.74414 10.1094 5.67773 10.3047 5.67773C10.7676 5.67773 11.1445 6.05469 11.1445 6.51953V9.92773H13.4883C13.9531 9.92773 14.3281 10.3027 14.3281 10.7676C14.3281 11.0254 14.2109 11.2578 14.0273 11.4121C13.8809 11.5332 13.6934 11.6074 13.4883 11.6074H11.1445H10.4629C9.91016 11.6074 9.46289 11.1602 9.46289 10.6074V9.92773V6.51758C9.46289 6.24805 9.58984 6.00781 9.78711 5.85352Z" fill="white"/>
</svg>
