<svg width="20" height="20" viewBox="0 0 20 20" fill="none" xmlns="http://www.w3.org/2000/svg">
<path fill-rule="evenodd" clip-rule="evenodd" d="M11.1484 7.75977V12.7207L10.1836 14.6504L9.21875 12.7207V7.75977C7.55859 7.32812 6.32422 5.83008 6.32422 4.03711C6.32422 1.9082 8.05469 0.177734 10.1836 0.177734C12.3125 0.177734 14.043 1.9082 14.043 4.03711C14.043 5.83008 12.8086 7.32812 11.1484 7.75977ZM10.1836 2.10742C9.11914 2.10742 8.25391 2.97266 8.25391 4.03711C8.25391 5.10156 9.11914 5.9668 10.1836 5.9668C11.248 5.9668 12.1133 5.10156 12.1133 4.03711C12.1133 2.97266 11.248 2.10742 10.1836 2.10742ZM14.043 9.37109C14.1855 8.85742 14.7188 8.55078 15.2207 8.73047C18.0898 9.75977 19.832 11.6074 19.832 13.6855C19.832 16.9316 15.5938 19.4746 10.1836 19.4746C4.77344 19.4746 0.535156 16.9316 0.535156 13.6855C0.535156 11.6074 2.27734 9.75977 5.14844 8.73047C5.64844 8.55078 6.18359 8.85547 6.32422 9.36914C6.4668 9.88281 6.16211 10.4102 5.66406 10.5957C4.43555 11.0566 3.49414 11.6816 2.96094 12.377C2.63867 12.7949 2.46484 13.2383 2.46484 13.6855C2.46484 15.5117 5.63477 17.5449 10.1836 17.5449C14.7324 17.5449 17.9023 15.5117 17.9023 13.6855C17.9023 12.4961 16.6758 11.334 14.7051 10.5977C14.2051 10.4102 13.9023 9.88477 14.043 9.37109Z" fill="white"/>
</svg>
