<svg width="20" height="18" viewBox="0 0 20 18" fill="none" xmlns="http://www.w3.org/2000/svg">
<path d="M18.8444 1.89027L12.8341 0.208984L6.80573 1.90664L1.20029 0.316649C1.08013 0.282563 0.953715 0.276797 0.830959 0.299804C0.708203 0.322812 0.592452 0.373966 0.492798 0.449249C0.393144 0.524532 0.3123 0.621894 0.256617 0.733688C0.200934 0.845481 0.171927 0.968662 0.171875 1.09356V14.8445C0.173598 15.2846 0.467306 15.6567 0.869541 15.7747L0.876432 15.7764L6.80401 17.4577L12.8349 15.7592L18.5274 17.3518C18.6474 17.3852 18.7735 17.3905 18.8959 17.3671C19.0183 17.3438 19.1336 17.2925 19.2328 17.2171C19.3321 17.1418 19.4125 17.0446 19.468 16.933C19.5234 16.8215 19.5523 16.6986 19.5524 16.574V2.82308C19.5518 2.61297 19.4831 2.4087 19.3567 2.24086C19.2304 2.07301 19.053 1.95062 18.8512 1.892L18.8444 1.89027ZM6.10807 15.9177L1.46471 14.6007V1.73438L6.10807 3.05133V15.9177ZM12.189 14.5999L7.40004 15.9487V3.08147L12.189 1.73265V14.5999ZM18.2604 15.9358L13.4809 14.599V1.73179L18.2604 3.06855V15.9358Z" fill="white" stroke="white" stroke-width="0.3"/>
</svg>
