<svg width="20" height="21" viewBox="0 0 20 21" fill="none" xmlns="http://www.w3.org/2000/svg">
<path d="M10.1334 7.87044C9.56644 7.81445 8.99605 7.93506 8.50031 8.21576C8.00458 8.49647 7.60772 8.92353 7.36407 9.4385C7.12043 9.95346 7.04191 10.5311 7.13927 11.0925C7.23663 11.6538 7.5051 12.1713 7.90794 12.5741C8.31077 12.9769 8.82827 13.2454 9.38958 13.3428C9.95089 13.4401 10.5286 13.3616 11.0435 13.118C11.5585 12.8743 11.9856 12.4775 12.2663 11.9817C12.547 11.486 12.6676 10.9156 12.6116 10.3487C12.5478 9.71313 12.2662 9.1192 11.8145 8.66754C11.3628 8.21588 10.7689 7.93428 10.1334 7.87044V7.87044ZM16.7866 10.6202C16.7848 10.9206 16.7628 11.2205 16.7205 11.5178L18.6725 13.0488C18.7575 13.1193 18.8147 13.2176 18.8341 13.3263C18.8535 13.435 18.8337 13.547 18.7782 13.6425L16.9317 16.8374C16.8756 16.9319 16.7879 17.0037 16.6841 17.0399C16.5803 17.0762 16.4671 17.0746 16.3643 17.0356L14.4258 16.255C14.3189 16.2124 14.2031 16.197 14.0888 16.2102C13.9745 16.2234 13.8652 16.2647 13.7708 16.3305C13.475 16.5342 13.1641 16.7152 12.8409 16.8719C12.7392 16.9213 12.6513 16.995 12.5849 17.0864C12.5185 17.1778 12.4756 17.2842 12.4601 17.3961L12.1695 19.4637C12.1504 19.5729 12.094 19.6721 12.0099 19.7443C11.9258 19.8165 11.8192 19.8573 11.7084 19.8596H8.01522C7.90622 19.8577 7.80112 19.8188 7.71723 19.7492C7.63333 19.6795 7.57565 19.5834 7.55369 19.4767L7.26355 17.412C7.24726 17.2989 7.20326 17.1915 7.13547 17.0995C7.06768 17.0074 6.9782 16.9336 6.87498 16.8844C6.55213 16.7286 6.24229 16.5471 5.94845 16.3417C5.85437 16.2763 5.74548 16.2353 5.6316 16.2224C5.51771 16.2095 5.40241 16.2251 5.29608 16.2679L3.35797 17.0481C3.25526 17.0872 3.14205 17.0888 3.03827 17.0526C2.93449 17.0165 2.8468 16.9448 2.79066 16.8503L0.944077 13.6554C0.888559 13.56 0.86872 13.4479 0.888091 13.3392C0.907461 13.2305 0.964785 13.1322 1.04985 13.0618L2.69956 11.7665C2.78994 11.6948 2.86097 11.6016 2.90621 11.4954C2.95145 11.3893 2.96946 11.2735 2.95861 11.1586C2.94306 10.9786 2.93357 10.799 2.93357 10.6189C2.93357 10.4389 2.94263 10.2619 2.95861 10.0857C2.96827 9.97155 2.94938 9.85675 2.90363 9.75169C2.85788 9.64662 2.78671 9.55459 2.69654 9.48388L1.0477 8.18864C0.964006 8.11787 0.907891 8.01991 0.889182 7.91192C0.870473 7.80393 0.890365 7.69281 0.945372 7.59801L2.79195 4.40309C2.84803 4.30853 2.93569 4.2368 3.03947 4.20055C3.14326 4.16429 3.25651 4.16584 3.35927 4.20491L5.29781 4.98551C5.40471 5.02808 5.5205 5.04345 5.63481 5.03027C5.74912 5.01708 5.85837 4.97574 5.95277 4.90996C6.24862 4.70622 6.55951 4.52524 6.88275 4.36855C6.98437 4.31915 7.07227 4.2455 7.13869 4.15409C7.2051 4.06268 7.24798 3.95632 7.26355 3.84441L7.55412 1.77677C7.5732 1.66757 7.62962 1.56839 7.71372 1.49618C7.79782 1.42397 7.9044 1.38321 8.01522 1.38086H11.7084C11.8174 1.38275 11.9225 1.4217 12.0064 1.49131C12.0903 1.56093 12.148 1.65704 12.1699 1.76382L12.4601 3.82843C12.4763 3.94158 12.5203 4.04894 12.5881 4.14099C12.6559 4.23303 12.7454 4.3069 12.8486 4.35603C13.1715 4.51187 13.4813 4.69335 13.7752 4.89873C13.8692 4.96419 13.9781 5.00521 14.092 5.0181C14.2059 5.03099 14.3212 5.01534 14.4275 4.97256L16.3656 4.19239C16.4683 4.15328 16.5816 4.15167 16.6853 4.18784C16.7891 4.22402 16.8768 4.29565 16.933 4.39013L18.7795 7.58506C18.835 7.68051 18.8549 7.79257 18.8355 7.90128C18.8161 8.01 18.7588 8.10831 18.6738 8.17871L17.024 9.47395C16.9333 9.54546 16.8618 9.63854 16.8162 9.74471C16.7706 9.85088 16.7522 9.96678 16.7628 10.0818C16.7771 10.2606 16.7866 10.4402 16.7866 10.6202Z" stroke="white" stroke-width="1.5" stroke-linecap="round" stroke-linejoin="round"/>
</svg>
