<svg width="21" height="20" viewBox="0 0 21 20" fill="none" xmlns="http://www.w3.org/2000/svg">
<path d="M10.2844 1.35551C10.3578 1.20688 10.5698 1.20688 10.6431 1.35551L13.312 6.76243C13.3411 6.8214 13.3974 6.86229 13.4625 6.8718L19.4311 7.74421C19.5951 7.76818 19.6605 7.96975 19.5417 8.08538L15.2232 12.2916C15.176 12.3376 15.1545 12.4038 15.1656 12.4687L16.1847 18.4108C16.2128 18.5742 16.0413 18.6988 15.8945 18.6216L10.5569 15.8146C10.4986 15.784 10.429 15.784 10.3707 15.8146L5.03304 18.6216C4.88631 18.6988 4.7148 18.5742 4.74283 18.4108L5.76196 12.4687C5.77309 12.4038 5.75156 12.3376 5.70439 12.2916L1.38584 8.08538C1.26712 7.96975 1.33248 7.76818 1.49646 7.74421L7.46512 6.8718C7.53019 6.86229 7.58643 6.8214 7.61554 6.76243L10.2844 1.35551Z" stroke="white" stroke-width="1.6" stroke-linecap="round" stroke-linejoin="round"/>
</svg>
