<?xml version="1.0" encoding="utf-8"?>
<!-- Svg Vector Icons : http://www.onlinewebfonts.com/icon -->
<!DOCTYPE svg PUBLIC "-//W3C//DTD SVG 1.1//EN" "http://www.w3.org/Graphics/SVG/1.1/DTD/svg11.dtd">
<svg version="1.1" xmlns="http://www.w3.org/2000/svg" xmlns:xlink="http://www.w3.org/1999/xlink" x="0px" y="0px" viewBox="0 0 1000 1000" enable-background="new 0 0 1000 1000" xml:space="preserve">
<metadata> Svg Vector Icons : http://www.onlinewebfonts.com/icon </metadata>
<g><g transform="translate(0.000000,512.000000) scale(0.100000,-0.100000)"><path d="M3958.6,5001.4c-78.6-34.5-159.1-132.2-172.5-208.9c-7.7-34.5-9.6-226.2-5.7-429.3c5.7-402.5,9.6-417.8,138-511.7c74.7-55.6,254.9-55.6,329.7,0c130.3,97.7,132.2,101.6,132.2,563.5c0,392.9-1.9,421.6-40.2,471.5c-21.1,28.8-61.3,70.9-88.2,90.1C4188.6,5024.4,4035.2,5037.8,3958.6,5001.4z"/><path d="M1348.2,3914.7c-86.2-42.2-151.4-128.4-170.6-226.2c-24.9-120.8,32.6-207,323.9-496.4c253-247.2,279.8-270.2,362.2-281.7c216.6-32.6,396.7,161,350.7,377.6c-11.5,46-84.3,134.2-276,329.6C1605,3958.8,1520.7,4001,1348.2,3914.7z"/><path d="M6593.9,3941.5c-26.8-5.7-161-122.7-329.6-289.4c-210.8-207-289.4-297.1-304.7-350.7c-65.2-214.6,118.8-425.5,343.1-391c82.4,11.5,109.2,34.5,362.2,281.7c291.3,289.4,348.8,375.6,323.9,496.4C6952.3,3872.6,6789.4,3978,6593.9,3941.5z"/><path d="M3738.2,3159.6c-481.1-80.5-960.2-346.9-1263-699.6c-147.6-170.6-210.8-264.5-306.7-454.2c-553.9-1103.9-69-2436,1067.5-2930.5c80.5-34.5,147.6-70.9,147.6-78.6c0-9.6-24.9-55.6-55.6-107.3c-128.4-216.6-199.3-584.6-149.5-795.4l19.2-82.4l-185.9-185.9c-197.4-199.3-285.6-329.7-360.3-536.6c-193.6-530.9-101.6-1082.9,254.9-1517.9c230-281.7,567.3-473.4,946.8-536.6c86.2-15.3,808.8-19.2,2319.1-15.3c2184.9,5.7,2194.5,5.7,2340.1,47.9c691.9,195.5,1182.5,695.7,1353.1,1378c46,182.1,46,638.2,0,820.3c-78.6,310.5-231.9,599.9-438.9,826.1c-172.5,185.9-327.7,300.9-563.5,415.9l-193.6,95.8l-13.4,97.7C8614-733,8420.4-313.3,8150.2,1.1c-415.9,483-1056.1,757-1703.9,728.3l-233.8-11.5l11.5,205.1c11.5,230-13.4,473.4-72.8,693.8c-46,164.8-195.5,490.7-287.5,624.8c-339.2,492.6-874,829.9-1454.7,918C4190.5,3194.1,3935.6,3194.1,3738.2,3159.6z M4447.3,2531c400.6-109.2,705.3-327.7,920-659.3c249.2-379.5,316.2-879.7,174.4-1295.6c-30.7-90.1-47.9-109.2-176.3-195.5C5156.5,238.7,4895.8-20,4773.1-209.8c-101.6-159.1-109.2-164.8-220.4-203.2C4018-593.1,3406.6-447.4,3000.3-41.1c-295.2,295.1-440.8,651.6-440.8,1082.9c0,333.5,69,569.2,239.6,829.9c214.7,329.7,550.1,571.2,910.4,653.6c74.7,15.3,151.4,34.5,172.5,38.3C3956.7,2580.8,4343.8,2557.8,4447.3,2531z M6958,64.3c471.5-134.2,837.5-483,1013.9-969.8c65.2-180.2,116.9-429.3,116.9-571.2c0-170.5,5.8-174.4,184-231.9c492.6-153.3,818.4-440.8,960.2-847.1c46-132.2,51.7-178.2,51.7-389.1c0-210.8-5.8-256.8-49.8-379.5c-70.9-199.3-159.1-337.3-302.8-483c-145.7-143.8-281.7-230-483-302.8l-139.9-51.7l-2156.2-5.7c-1510.3-3.8-2184.9,1.9-2255.8,15.3c-164.8,34.5-350.7,139.9-469.6,264.5c-283.7,297.1-343.1,713-153.3,1065.6c67.1,128.4,262.6,322,454.2,450.4c84.3,57.5,155.2,105.4,159.1,107.3c3.8,3.8-21.1,111.2-55.6,241.5c-46,182.1-57.5,264.5-49.8,352.7c23,289.4,254.9,530.9,538.6,559.6c59.4,5.7,185.9-5.8,318.2-30.7c254.9-46,325.8-49.8,325.8-15.3c0,55.6,235.7,496.4,339.2,638.2C5553.2-184.8,5871.3,24,6239.3,95C6427.1,131.4,6774.1,116,6958,64.3z"/><path d="M278.7,1321.6C92.8,1239.2,41.1,993.8,175.2,840.5c86.2-97.8,149.5-109.2,576.9-101.6c412.1,5.8,427.4,9.6,521.3,138c55.6,74.7,55.6,254.9,0,329.7C1177.6,1335,1168,1338.8,733,1342.7C432.1,1346.5,322.8,1342.7,278.7,1321.6z"/><path d="M7025.1,1321.6c-185.9-82.4-237.7-327.7-103.5-481.1c86.3-97.8,149.5-109.2,576.9-101.6c412.1,5.8,427.4,9.6,521.3,138c55.6,74.7,55.6,254.9,0,329.7c-95.8,128.4-105.4,132.2-540.5,136.1C7178.5,1346.5,7069.2,1342.7,7025.1,1321.6z"/><path d="M1792.8-844.2c-30.7-15.3-174.4-145.6-318.2-291.3c-207-210.8-268.3-283.7-287.5-346.9c-63.2-220.4,151.4-435.1,371.8-371.8c65.2,19.2,134.2,78.6,362.2,304.7c262.6,264.5,279.8,287.5,293.2,371.8C2249-941.9,2003.7-750.2,1792.8-844.2z"/></g></g>
</svg>