<svg width="15" height="12" viewBox="0 0 15 12" fill="none" xmlns="http://www.w3.org/2000/svg">
<path d="M2.02902 3.37885C3.324 2.26696 4.34693 1.38783 7.12294 2.95633C8.45647 3.70945 9.53203 3.99409 10.4267 3.99261C11.9945 3.99261 13.0108 3.12089 13.8891 2.36703C14.0399 2.23587 14.1337 2.05115 14.1506 1.85203C14.1674 1.6529 14.1061 1.45503 13.9796 1.30036C13.9179 1.22446 13.8415 1.16171 13.7551 1.11583C13.6687 1.06994 13.574 1.04185 13.4766 1.03321C13.3791 1.02457 13.2809 1.03556 13.1878 1.06553C13.0947 1.0955 13.0085 1.14385 12.9344 1.2077C11.6402 2.32107 10.6165 3.20021 7.84048 1.63022C4.17274 -0.440112 2.4545 1.03499 1.07428 2.221C0.923619 2.35227 0.829995 2.53704 0.813252 2.73616C0.796509 2.93528 0.857962 3.13309 0.984586 3.28768C1.04635 3.36344 1.12268 3.42605 1.20907 3.4718C1.29546 3.51754 1.39015 3.54549 1.48753 3.55399C1.58492 3.56249 1.68301 3.55137 1.77602 3.52129C1.86903 3.49121 1.95506 3.44277 2.02902 3.37885V3.37885ZM12.9344 4.99331C11.6402 6.1052 10.6165 6.98581 7.84048 5.41583C4.17274 3.34401 2.4545 4.81986 1.07428 6.00513C0.923619 6.13639 0.829995 6.32117 0.813252 6.52028C0.796509 6.7194 0.857962 6.91722 0.984586 7.0718C1.04624 7.14767 1.1225 7.21041 1.20883 7.25629C1.29517 7.30217 1.38983 7.33026 1.48722 7.3389C1.5846 7.34754 1.68273 7.33655 1.7758 7.30658C1.86886 7.27662 1.95497 7.22829 2.02902 7.16445C3.324 6.05183 4.34693 5.17269 7.12294 6.74046C8.45647 7.49506 9.53203 7.77822 10.4267 7.77822C11.9945 7.77822 13.0108 6.9065 13.8891 6.15116C14.04 6.02023 14.1339 5.83561 14.1508 5.63655C14.1677 5.4375 14.1063 5.2397 13.9796 5.08523C13.9179 5.00929 13.8415 4.94653 13.7551 4.90065C13.6687 4.85477 13.5739 4.82671 13.4764 4.81814C13.379 4.80957 13.2808 4.82065 13.1877 4.85074C13.0945 4.88083 13.0084 4.92931 12.9344 4.99331V4.99331ZM12.9344 8.77817C11.6402 9.89154 10.6165 10.7707 7.84048 9.20217C4.17274 7.13036 2.4545 8.60546 1.07428 9.79147C0.923619 9.92274 0.829995 10.1075 0.813252 10.3066C0.796509 10.5058 0.857962 10.7036 0.984586 10.8581C1.04629 10.934 1.1226 10.9967 1.20899 11.0425C1.29538 11.0883 1.39009 11.1163 1.48751 11.1248C1.58492 11.1333 1.68304 11.1221 1.77607 11.092C1.86909 11.0619 1.95511 11.0133 2.02902 10.9493C3.324 9.83743 4.34693 8.95904 7.12294 10.5268C8.45647 11.2799 9.53203 11.5646 10.4267 11.5646C11.9945 11.5646 13.0108 10.6914 13.8891 9.9375C14.0399 9.80634 14.1337 9.62162 14.1506 9.4225C14.1674 9.22337 14.1061 9.0255 13.9796 8.87083C13.9178 8.79502 13.8415 8.73235 13.7551 8.68652C13.6687 8.64069 13.574 8.61263 13.4765 8.604C13.3791 8.59536 13.281 8.60632 13.1879 8.63624C13.0947 8.66615 13.0086 8.71441 12.9344 8.77817V8.77817Z" fill="white"/>
</svg>
