<svg width="15" height="12" viewBox="0 0 15 12" fill="none" xmlns="http://www.w3.org/2000/svg">
<path d="M3.09596 5.65341C3.19651 5.6366 3.28957 5.58602 3.36189 5.50887C3.43421 5.43172 3.48211 5.33194 3.49876 5.22374C3.86245 2.84252 5.47303 1.41016 7.34923 1.41016C9.09187 1.41016 10.2557 2.63433 10.7244 3.93114C10.7545 4.01426 10.8042 4.08749 10.8686 4.14361C10.9329 4.19973 11.0097 4.23682 11.0914 4.25121C12.5955 4.5155 13.8469 5.59828 13.8469 7.48075C13.8469 9.407 12.3849 10.7495 10.5981 10.7495H3.55892C2.06987 10.7495 0.851562 9.94855 0.851562 8.18121C0.851562 6.6094 2.01483 5.83923 3.09596 5.65341V5.65341Z" stroke="white" stroke-linejoin="round"/>
</svg>
