<svg width="11" height="15" viewBox="0 0 11 15" fill="none" xmlns="http://www.w3.org/2000/svg">
<path fill-rule="evenodd" clip-rule="evenodd" d="M3.17488 4.67638C4.00084 3.33089 4.92858 2.16109 5.46547 1.51978C6.00228 2.16114 6.92993 3.33091 7.75583 4.67638C8.69131 6.20034 9.42794 7.84247 9.42794 9.16637C9.42794 10.4387 9.03003 11.4157 8.37237 12.0734C7.71471 12.7311 6.7377 13.129 5.46534 13.129C4.19298 13.129 3.21597 12.7311 2.55831 12.0734C1.90065 11.4157 1.50273 10.4387 1.50273 9.16637C1.50273 7.84248 2.23937 6.20034 3.17488 4.67638ZM5.4655 0.199219C5.32401 0.199219 5.18421 0.229847 5.05568 0.288999C4.92716 0.348151 4.81296 0.434425 4.72094 0.541893L4.72065 0.542232C4.20937 1.14023 3.11851 2.47445 2.15219 4.04859C1.20151 5.59726 0.302734 7.4856 0.302734 9.16637C0.302734 10.694 0.786133 11.9983 1.70978 12.9219C2.63343 13.8456 3.93772 14.329 5.46534 14.329C6.99296 14.329 8.29725 13.8456 9.2209 12.9219C10.1445 11.9983 10.6279 10.694 10.6279 9.16637C10.6279 7.4856 9.72917 5.59727 8.77853 4.0486C7.81225 2.47446 6.72148 1.14025 6.2104 0.542303L6.21005 0.541893C6.11803 0.434426 6.00384 0.348152 5.87531 0.288999C5.74679 0.229847 5.60698 0.199219 5.4655 0.199219ZM8.8524 9.42031C8.8524 9.08894 8.58377 8.82031 8.2524 8.82031C7.92102 8.82031 7.6524 9.08894 7.6524 9.42031C7.6524 9.86622 7.47526 10.2939 7.15995 10.6092C6.84465 10.9245 6.417 11.1016 5.97109 11.1016C5.63972 11.1016 5.37109 11.3702 5.37109 11.7016C5.37109 12.033 5.63972 12.3016 5.97109 12.3016C6.73526 12.3016 7.46813 11.998 8.00848 11.4577C8.54883 10.9174 8.8524 10.1845 8.8524 9.42031Z" fill="white"/>
</svg>
