<svg width="16" height="15" viewBox="0 0 16 15" fill="none" xmlns="http://www.w3.org/2000/svg">
<path d="M7.8165 0.0742188C7.70604 0.0742188 7.6165 0.163762 7.6165 0.274219V1.17178C7.6165 1.27578 7.53634 1.36218 7.43294 1.37336C3.78587 1.76786 0.939313 4.7673 0.80184 7.91698C0.801483 7.9283 0.800845 7.93954 0.800014 7.95073C0.79183 8.06088 0.872746 8.14993 0.983203 8.14993H1.82562C1.93608 8.14993 2.04769 8.05929 2.12751 7.98294C2.17742 7.93521 2.25015 7.88039 2.35486 7.82069C2.63068 7.6629 3.07422 7.52872 3.57864 7.52872C4.08306 7.52872 4.52661 7.6629 4.80242 7.82069C4.90713 7.88039 4.97986 7.93521 5.02977 7.98294C5.1096 8.05929 5.22121 8.14993 5.33166 8.14993H6.17408C6.28454 8.14993 6.41215 8.06649 6.49504 7.99349C6.55335 7.94213 6.63859 7.88233 6.76233 7.82069C7.09903 7.65172 7.63575 7.52872 8.2377 7.52872C8.84028 7.52872 9.37638 7.65172 9.71308 7.82069C9.83682 7.88233 9.92206 7.94213 9.98037 7.99349C10.0633 8.06649 10.1909 8.14993 10.3013 8.14993H11.1437C11.2542 8.14993 11.3658 8.05929 11.4456 7.98294C11.4955 7.93521 11.5683 7.88039 11.673 7.82069C11.9488 7.6629 12.3923 7.52872 12.8968 7.52872C13.4012 7.52872 13.8447 7.6629 14.1205 7.82069C14.2253 7.88039 14.298 7.93521 14.3479 7.98294C14.4277 8.05929 14.5393 8.14993 14.6498 8.14993H15.4922C15.6027 8.14993 15.6939 8.05995 15.6787 7.95055C15.6771 7.93929 15.6754 7.9281 15.6736 7.91698C15.5355 4.7673 12.6883 1.76787 9.04243 1.37277C8.93905 1.36157 8.85891 1.27518 8.85891 1.17119V0.274219C8.85891 0.163762 8.76937 0.0742188 8.65891 0.0742188H7.8165ZM8.2377 2.55905C10.7693 2.55905 12.9556 4.17256 13.924 6.07713C14.0005 6.22752 13.8568 6.39129 13.6911 6.3595C13.4297 6.30933 13.1636 6.28475 12.8968 6.2863C12.201 6.2863 11.5643 6.44036 11.0518 6.73357C10.9755 6.77873 10.9019 6.82815 10.8312 6.8816C10.7551 6.93918 10.6499 6.94253 10.571 6.88882C10.4762 6.82423 10.3774 6.76554 10.2753 6.71307C9.7137 6.43353 9.008 6.2863 8.2377 6.2863C7.46741 6.2863 6.76233 6.43229 6.20014 6.71369C6.06057 6.78288 5.93131 6.87956 5.80685 6.97349C5.79798 6.98018 5.78061 6.99302 5.77275 6.98516V6.98516C5.66398 6.89076 5.54693 6.80634 5.42301 6.73295C4.90989 6.43912 4.27377 6.28568 3.57802 6.28568C3.3024 6.28568 3.03796 6.31006 2.78631 6.35751C2.61983 6.3889 2.4747 6.22387 2.55172 6.07297C3.52265 4.1705 5.70834 2.55905 8.2377 2.55905ZM7.8165 8.14993C7.70604 8.14993 7.6165 8.23947 7.6165 8.34993V13.1196C7.6165 13.4706 7.34627 13.7408 6.99529 13.7408C6.64431 13.7408 6.37408 13.4706 6.37408 13.1196V12.6984C6.37408 12.5879 6.28454 12.4984 6.17408 12.4984H5.33166C5.22121 12.4984 5.13166 12.5879 5.13166 12.6984V13.1196C5.13166 14.1415 5.9734 14.9832 6.99529 14.9832C8.01718 14.9832 8.85891 14.1415 8.85891 13.1196V8.34993C8.85891 8.23947 8.76937 8.14993 8.65891 8.14993H7.8165Z" fill="white"/>
</svg>
