<svg width="15" height="15" viewBox="0 0 15 15" fill="none" xmlns="http://www.w3.org/2000/svg">
<path d="M8.51035 5.51937L8.85203 5.74978L9.14344 5.45839L10.2893 4.31267L9.93574 3.9591L10.2894 4.31256C10.3123 4.28959 10.3496 4.28959 10.3726 4.31256L10.3727 4.31274C10.3957 4.33566 10.3958 4.37297 10.3726 4.39611L9.22692 5.54183L8.93553 5.83322L9.16589 6.1749C9.42464 6.55868 9.5756 7.01969 9.5756 7.51647C9.5756 8.84319 8.49553 9.92325 7.16882 9.92325C5.84211 9.92325 4.76204 8.84319 4.76204 7.51647C4.76204 6.18976 5.84211 5.1097 7.16882 5.1097C7.66563 5.1097 8.12673 5.26067 8.51035 5.51937ZM0.513672 7.51647C0.513672 3.83764 3.49048 0.861328 7.16882 0.861328C10.8477 0.861328 13.824 3.83813 13.824 7.51647C13.824 11.1953 10.8472 14.1716 7.16882 14.1716C3.48998 14.1716 0.513672 11.1948 0.513672 7.51647ZM0.631664 7.51647C0.631664 11.1297 3.55608 14.0536 7.16882 14.0536C10.782 14.0536 13.706 11.1292 13.706 7.51647C13.706 3.90326 10.7816 0.97932 7.16882 0.97932C3.5556 0.97932 0.631664 3.90374 0.631664 7.51647ZM4.88003 7.51647C4.88003 8.77894 5.90635 9.80526 7.16882 9.80526C8.43128 9.80526 9.45761 8.77894 9.45761 7.51647C9.45761 6.25401 8.43128 5.22769 7.16882 5.22769C5.90635 5.22769 4.88003 6.25401 4.88003 7.51647Z" fill="white" stroke="white"/>
</svg>
