<svg width="15" height="15" viewBox="0 0 15 15" fill="none" xmlns="http://www.w3.org/2000/svg">
<path fill-rule="evenodd" clip-rule="evenodd" d="M7.40078 0.523438C7.73215 0.523438 8.00078 0.792067 8.00078 1.12344V2.63471C8.00078 2.96608 7.73215 3.23471 7.40078 3.23471C7.06941 3.23471 6.80078 2.96608 6.80078 2.63471V1.12344C6.80078 0.792067 7.06941 0.523438 7.40078 0.523438ZM7.40078 12.1094C7.73215 12.1094 8.00078 12.378 8.00078 12.7094V14.2206C8.00078 14.552 7.73215 14.8206 7.40078 14.8206C7.06941 14.8206 6.80078 14.552 6.80078 14.2206V12.7094C6.80078 12.378 7.06941 12.1094 7.40078 12.1094ZM12.4542 3.46567C12.6885 3.23136 12.6885 2.85146 12.4542 2.61714C12.2199 2.38283 11.84 2.38283 11.6057 2.61714L10.5371 3.68574C10.3027 3.92005 10.3027 4.29995 10.5371 4.53427C10.7714 4.76858 11.1513 4.76858 11.3856 4.53427L12.4542 3.46567ZM4.26278 10.8105C4.4971 11.0448 4.4971 11.4247 4.26278 11.659L3.19419 12.7276C2.95987 12.9619 2.57997 12.9619 2.34566 12.7276C2.11134 12.4933 2.11134 12.1134 2.34566 11.8791L3.41425 10.8105C3.64857 10.5762 4.02847 10.5762 4.26278 10.8105ZM12.4398 7.07227C12.1085 7.07227 11.8398 7.34089 11.8398 7.67227C11.8398 8.00364 12.1085 8.27227 12.4398 8.27227H13.9511C14.2825 8.27227 14.5511 8.00364 14.5511 7.67227C14.5511 7.34089 14.2825 7.07227 13.9511 7.07227H12.4398ZM0.251953 7.67227C0.251953 7.34089 0.520582 7.07227 0.851953 7.07227H2.36323C2.6946 7.07227 2.96323 7.34089 2.96323 7.67227C2.96323 8.00364 2.6946 8.27227 2.36323 8.27227H0.851953C0.520582 8.27227 0.251953 8.00364 0.251953 7.67227ZM11.3856 10.8105C11.1513 10.5762 10.7714 10.5762 10.5371 10.8105C10.3027 11.0448 10.3027 11.4247 10.5371 11.659L11.6057 12.7276C11.84 12.9619 12.2199 12.9619 12.4542 12.7276C12.6885 12.4933 12.6885 12.1134 12.4542 11.8791L11.3856 10.8105ZM2.34566 2.61714C2.57997 2.38283 2.95987 2.38283 3.19419 2.61714L4.26278 3.68574C4.4971 3.92005 4.4971 4.29995 4.26278 4.53427C4.02847 4.76858 3.64857 4.76858 3.41425 4.53427L2.34566 3.46567C2.11134 3.23136 2.11134 2.85146 2.34566 2.61714ZM5.48125 7.67152C5.48125 6.61181 6.34032 5.75273 7.40004 5.75273C8.45976 5.75273 9.31883 6.61181 9.31883 7.67152C9.31883 8.73124 8.45976 9.59031 7.40004 9.59031C6.34032 9.59031 5.48125 8.73124 5.48125 7.67152ZM7.40004 4.55273C5.67758 4.55273 4.28125 5.94906 4.28125 7.67152C4.28125 9.39398 5.67758 10.7903 7.40004 10.7903C9.1225 10.7903 10.5188 9.39398 10.5188 7.67152C10.5188 5.94906 9.1225 4.55273 7.40004 4.55273Z" fill="white"/>
</svg>
