<svg width="15" height="14" viewBox="0 0 15 14" fill="none" xmlns="http://www.w3.org/2000/svg">
<mask id="path-1-inside-1" fill="white">
<path fill-rule="evenodd" clip-rule="evenodd" d="M7.56479 1.38976C7.54933 1.41106 7.34199 1.695 6.96776 2.14088C7.71262 3.47823 7.96643 5.3879 7.96643 6.9258C7.96643 8.46267 7.71295 10.3728 6.96779 11.7108C7.34202 12.1566 7.54933 12.4406 7.56482 12.4619C7.71353 12.6667 7.66807 12.9533 7.46326 13.102C7.25747 13.2514 6.97109 13.2043 6.82308 13.0005C5.56056 11.2672 2.95828 8.71493 0.265255 7.3349L0.263025 7.33374C0.157794 7.27981 0.0793911 7.18851 0.0406784 7.08084C0.00465443 6.98062 0.00468499 6.87087 0.0406784 6.7708C0.0793911 6.66309 0.157794 6.57183 0.263025 6.5179L0.265255 6.51674C2.74886 5.24395 5.43348 2.76429 6.82305 0.851172C6.97182 0.646303 7.25839 0.600899 7.46323 0.749608C7.66804 0.898348 7.71353 1.18495 7.56479 1.38976ZM1.42508 6.9258C3.22924 7.97957 4.92505 9.44632 6.31853 10.9705C6.548 10.4778 6.72946 9.87182 6.85431 9.19204C5.75122 9.02741 4.90238 8.07395 4.90238 6.9258C4.90238 5.77765 5.75125 4.82419 6.85428 4.65959C6.72949 3.97985 6.548 3.37382 6.31853 2.88116C4.92065 4.41002 3.22585 5.87405 1.42508 6.9258ZM6.9823 5.56716C6.32427 5.66927 5.81899 6.23961 5.81899 6.9258C5.81899 7.612 6.32427 8.18233 6.9823 8.28445C7.0266 7.8488 7.04983 7.39329 7.04983 6.9258C7.04983 6.45832 7.0266 6.00284 6.9823 5.56716ZM9.62217 8.93757L13.9609 10.4653C14.1996 10.5494 14.3251 10.8111 14.241 11.0498C14.1572 11.2878 13.8959 11.4142 13.6565 11.3299L9.31775 9.80217C9.079 9.71811 8.95357 9.45641 9.03766 9.21766C9.12171 8.97888 9.3835 8.85345 9.62217 8.93757ZM9.62217 4.91365L13.9609 3.38592C14.1996 3.30186 14.3251 3.04013 14.241 2.80141C14.157 2.56268 13.8951 2.43732 13.6565 2.52131L9.31775 4.04904C9.079 4.1331 8.95357 4.39483 9.03766 4.63356C9.12165 4.87219 9.38335 4.99777 9.62217 4.91365ZM13.8102 7.38347H9.47144C9.21833 7.38347 9.01312 7.17826 9.01312 6.92515C9.01312 6.67203 9.21833 6.46683 9.47144 6.46683H13.8102C14.0633 6.46683 14.2685 6.67203 14.2685 6.92515C14.2685 7.17826 14.0633 7.38347 13.8102 7.38347Z"/>
</mask>
<path fill-rule="evenodd" clip-rule="evenodd" d="M7.56479 1.38976C7.54933 1.41106 7.34199 1.695 6.96776 2.14088C7.71262 3.47823 7.96643 5.3879 7.96643 6.9258C7.96643 8.46267 7.71295 10.3728 6.96779 11.7108C7.34202 12.1566 7.54933 12.4406 7.56482 12.4619C7.71353 12.6667 7.66807 12.9533 7.46326 13.102C7.25747 13.2514 6.97109 13.2043 6.82308 13.0005C5.56056 11.2672 2.95828 8.71493 0.265255 7.3349L0.263025 7.33374C0.157794 7.27981 0.0793911 7.18851 0.0406784 7.08084C0.00465443 6.98062 0.00468499 6.87087 0.0406784 6.7708C0.0793911 6.66309 0.157794 6.57183 0.263025 6.5179L0.265255 6.51674C2.74886 5.24395 5.43348 2.76429 6.82305 0.851172C6.97182 0.646303 7.25839 0.600899 7.46323 0.749608C7.66804 0.898348 7.71353 1.18495 7.56479 1.38976ZM1.42508 6.9258C3.22924 7.97957 4.92505 9.44632 6.31853 10.9705C6.548 10.4778 6.72946 9.87182 6.85431 9.19204C5.75122 9.02741 4.90238 8.07395 4.90238 6.9258C4.90238 5.77765 5.75125 4.82419 6.85428 4.65959C6.72949 3.97985 6.548 3.37382 6.31853 2.88116C4.92065 4.41002 3.22585 5.87405 1.42508 6.9258ZM6.9823 5.56716C6.32427 5.66927 5.81899 6.23961 5.81899 6.9258C5.81899 7.612 6.32427 8.18233 6.9823 8.28445C7.0266 7.8488 7.04983 7.39329 7.04983 6.9258C7.04983 6.45832 7.0266 6.00284 6.9823 5.56716ZM9.62217 8.93757L13.9609 10.4653C14.1996 10.5494 14.3251 10.8111 14.241 11.0498C14.1572 11.2878 13.8959 11.4142 13.6565 11.3299L9.31775 9.80217C9.079 9.71811 8.95357 9.45641 9.03766 9.21766C9.12171 8.97888 9.3835 8.85345 9.62217 8.93757ZM9.62217 4.91365L13.9609 3.38592C14.1996 3.30186 14.3251 3.04013 14.241 2.80141C14.157 2.56268 13.8951 2.43732 13.6565 2.52131L9.31775 4.04904C9.079 4.1331 8.95357 4.39483 9.03766 4.63356C9.12165 4.87219 9.38335 4.99777 9.62217 4.91365ZM13.8102 7.38347H9.47144C9.21833 7.38347 9.01312 7.17826 9.01312 6.92515C9.01312 6.67203 9.21833 6.46683 9.47144 6.46683H13.8102C14.0633 6.46683 14.2685 6.67203 14.2685 6.92515C14.2685 7.17826 14.0633 7.38347 13.8102 7.38347Z" fill="white"/>
<path d="M6.96776 2.14088L6.20179 1.498L5.75893 2.02565L6.09412 2.62747L6.96776 2.14088ZM7.56479 1.38976L6.75566 0.802132L6.75555 0.802282L7.56479 1.38976ZM6.96779 11.7108L6.09414 11.2242L5.75897 11.826L6.20182 12.3536L6.96779 11.7108ZM7.56482 12.4619L8.37401 11.8743L8.37353 11.8737L7.56482 12.4619ZM7.46326 13.102L8.05079 13.9112L8.05089 13.9112L7.46326 13.102ZM6.82308 13.0005L7.63222 12.4128L7.63139 12.4117L6.82308 13.0005ZM0.265255 7.3349L-0.196348 8.22201L-0.190798 8.22485L0.265255 7.3349ZM0.263025 7.33374L0.724628 6.44663L0.719104 6.4438L0.263025 7.33374ZM0.0406784 7.08084L-0.900373 7.4191L-0.900349 7.41917L0.0406784 7.08084ZM0.0406784 6.7708L0.981657 7.10927L0.981736 7.10905L0.0406784 6.7708ZM0.263025 6.5179L0.719114 7.40785L0.724768 7.40491L0.263025 6.5179ZM0.265255 6.51674L-0.190827 5.62678L-0.196488 5.62972L0.265255 6.51674ZM6.82305 0.851172L7.63215 1.43885L7.63221 1.43876L6.82305 0.851172ZM7.46323 0.749608L8.05086 -0.0595244L8.05072 -0.059624L7.46323 0.749608ZM6.31853 10.9705L5.58049 11.6452L6.59206 12.7517L7.22503 11.3927L6.31853 10.9705ZM1.42508 6.9258L0.920742 6.0623L-0.557696 6.92579L0.920729 7.7893L1.42508 6.9258ZM6.85431 9.19204L7.83786 9.37268L8.02464 8.35563L7.00192 8.203L6.85431 9.19204ZM6.85428 4.65959L7.00187 5.64864L8.02454 5.49604L7.83784 4.47904L6.85428 4.65959ZM6.31853 2.88116L7.22503 2.45895L6.59208 1.10002L5.58052 2.20638L6.31853 2.88116ZM6.9823 5.56716L7.97717 5.46599L7.87053 4.41735L6.82895 4.57899L6.9823 5.56716ZM6.9823 8.28445L6.82895 9.27262L7.87053 9.43425L7.97717 8.38562L6.9823 8.28445ZM13.9609 10.4653L13.6288 11.4085L13.6288 11.4085L13.9609 10.4653ZM9.62217 8.93757L9.28976 9.8807L9.29004 9.8808L9.62217 8.93757ZM14.241 11.0498L13.2978 10.7176L13.2977 10.7177L14.241 11.0498ZM13.6565 11.3299L13.3244 12.2731L13.3244 12.2732L13.6565 11.3299ZM9.31775 9.80217L9.64988 8.85894L9.64983 8.85892L9.31775 9.80217ZM9.03766 9.21766L9.98087 9.54985L9.98092 9.5497L9.03766 9.21766ZM13.9609 3.38592L13.6288 2.44267L13.6288 2.44268L13.9609 3.38592ZM9.62217 4.91365L9.29004 3.97042L9.28995 3.97045L9.62217 4.91365ZM14.241 2.80141L13.2977 3.13342L13.2978 3.13363L14.241 2.80141ZM13.6565 2.52131L13.3245 1.57803L13.3244 1.57808L13.6565 2.52131ZM9.31775 4.04904L9.64983 4.9923L9.64988 4.99228L9.31775 4.04904ZM9.03766 4.63356L9.98093 4.30154L9.98086 4.30133L9.03766 4.63356ZM7.73372 2.78376C8.12506 2.3175 8.3468 2.01476 8.37403 1.97724L6.75555 0.802282C6.75187 0.807355 6.55892 1.0725 6.20179 1.498L7.73372 2.78376ZM8.96643 6.9258C8.96643 5.32542 8.70926 3.2125 7.84139 1.6543L6.09412 2.62747C6.71598 3.74396 6.96643 5.45037 6.96643 6.9258H8.96643ZM7.84143 12.1973C8.70962 10.6385 8.96643 8.52504 8.96643 6.9258H6.96643C6.96643 8.4003 6.71628 10.1071 6.09414 11.2242L7.84143 12.1973ZM8.37353 11.8737C8.34683 11.837 8.12527 11.5343 7.73375 11.0679L6.20182 12.3536C6.55877 12.7789 6.75184 13.0442 6.75612 13.0501L8.37353 11.8737ZM8.05089 13.9112C8.70251 13.4379 8.84721 12.526 8.37401 11.8743L6.75563 13.0494C6.57986 12.8073 6.63362 12.4687 6.87563 12.2929L8.05089 13.9112ZM6.01394 13.5881C6.48443 14.2359 7.39534 14.3871 8.05079 13.9112L6.87573 12.2928C7.11961 12.1158 7.45774 12.1726 7.63221 12.4128L6.01394 13.5881ZM-0.190798 8.22485C2.33525 9.51932 4.82429 11.9548 6.01477 13.5892L7.63139 12.4117C6.29683 10.5795 3.58131 7.91054 0.721308 6.44495L-0.190798 8.22485ZM-0.19857 8.22083L-0.196339 8.22199L0.726849 6.44781L0.724619 6.44665L-0.19857 8.22083ZM-0.900349 7.41917C-0.777289 7.76144 -0.527921 8.05206 -0.193055 8.22368L0.719104 6.4438C0.84351 6.50755 0.936071 6.61558 0.981705 6.74251L-0.900349 7.41917ZM-0.9003 6.43233C-1.01498 6.75116 -1.015 7.1002 -0.900373 7.4191L0.98173 6.74257C1.02431 6.86104 1.02435 6.99057 0.981657 7.10927L-0.9003 6.43233ZM-0.193055 5.62796C-0.527836 5.79953 -0.777287 6.09009 -0.900379 6.43255L0.981736 7.10905C0.936069 7.2361 0.843425 7.34412 0.719104 7.40784L-0.193055 5.62796ZM-0.196488 5.62972L-0.198719 5.63088L0.724768 7.40491L0.726999 7.40375L-0.196488 5.62972ZM6.01395 0.263496C4.70484 2.06585 2.1361 4.43431 -0.190818 5.62679L0.721328 7.40668C3.36162 6.0536 6.16213 3.46273 7.63215 1.43885L6.01395 0.263496ZM8.05072 -0.059624C7.39916 -0.532645 6.48727 -0.388301 6.01389 0.263582L7.63221 1.43876C7.45637 1.68091 7.11762 1.73444 6.87574 1.55884L8.05072 -0.059624ZM8.37393 1.97739C8.84731 1.32556 8.70239 0.413649 8.05086 -0.0595244L6.8756 1.55874C6.63368 1.38305 6.57976 1.04434 6.75566 0.802132L8.37393 1.97739ZM7.05657 10.2957C5.61165 8.71529 3.83941 7.17788 1.92943 6.0623L0.920729 7.7893C2.61908 8.78127 4.23846 10.1773 5.58049 11.6452L7.05657 10.2957ZM5.87076 9.01141C5.75696 9.63104 5.59688 10.1514 5.41203 10.5483L7.22503 11.3927C7.49912 10.8042 7.70196 10.1126 7.83786 9.37268L5.87076 9.01141ZM3.90238 6.9258C3.90238 8.57731 5.12179 9.94455 6.7067 10.1811L7.00192 8.203C6.38065 8.11028 5.90238 7.5706 5.90238 6.9258H3.90238ZM6.70669 3.67055C5.12183 3.90705 3.90238 5.2743 3.90238 6.9258H5.90238C5.90238 6.28101 6.38068 5.74134 7.00187 5.64864L6.70669 3.67055ZM5.41203 3.30338C5.59688 3.70024 5.75698 4.22063 5.87071 4.84015L7.83784 4.47904C7.702 3.73906 7.49911 3.0474 7.22503 2.45895L5.41203 3.30338ZM1.92942 7.78931C3.83585 6.67585 5.60708 5.14123 7.05655 3.55595L5.58052 2.20638C4.23423 3.67881 2.61585 5.07225 0.920742 6.0623L1.92942 7.78931ZM6.81899 6.9258C6.81899 6.74095 6.95665 6.58311 7.13565 6.55533L6.82895 4.57899C5.6919 4.75544 4.81899 5.73826 4.81899 6.9258H6.81899ZM7.13565 7.29627C6.95665 7.2685 6.81899 7.11065 6.81899 6.9258H4.81899C4.81899 8.11335 5.6919 9.09617 6.82895 9.27262L7.13565 7.29627ZM6.04983 6.9258C6.04983 7.36043 6.02822 7.78215 5.98743 8.18327L7.97717 8.38562C8.02498 7.91544 8.04983 7.42615 8.04983 6.9258H6.04983ZM5.98743 5.66833C6.02822 6.06948 6.04983 6.49118 6.04983 6.9258H8.04983C8.04983 6.42546 8.02498 5.93619 7.97717 5.46599L5.98743 5.66833ZM14.293 9.52206L9.95429 7.99433L9.29004 9.8808L13.6288 11.4085L14.293 9.52206ZM15.1842 11.382C15.4518 10.6222 15.0526 9.78949 14.293 9.52205L13.6288 11.4085C13.3467 11.3092 13.1983 10.9999 13.2978 10.7176L15.1842 11.382ZM13.3244 12.2732C14.0868 12.5416 14.9178 12.1388 15.1842 11.3819L13.2977 10.7177C13.3966 10.4368 13.7051 10.2868 13.9885 10.3866L13.3244 12.2732ZM8.98562 10.7454L13.3244 12.2731L13.9886 10.3867L9.64988 8.85894L8.98562 10.7454ZM8.09444 8.88547C7.82684 9.64529 8.22603 10.478 8.98567 10.7454L9.64983 8.85892C9.93197 8.95825 10.0803 9.26754 9.98087 9.54985L8.09444 8.88547ZM9.95458 7.99443C9.1947 7.72661 8.36181 8.12593 8.09439 8.88562L9.98092 9.5497C9.88161 9.83182 9.57231 9.98029 9.28976 9.8807L9.95458 7.99443ZM13.6288 2.44268L9.29004 3.97042L9.95429 5.85688L14.293 4.32915L13.6288 2.44268ZM13.2978 3.13363C13.1983 2.85128 13.3467 2.542 13.6288 2.44267L14.293 4.32917C15.0526 4.06173 15.4518 3.22898 15.1842 2.46918L13.2978 3.13363ZM13.9885 3.4646C13.7065 3.56382 13.3972 3.41601 13.2977 3.13342L15.1843 2.46939C14.9167 1.70936 14.0837 1.31082 13.3245 1.57803L13.9885 3.4646ZM9.64988 4.99228L13.9886 3.46455L13.3244 1.57808L8.98562 3.10581L9.64988 4.99228ZM9.98086 4.30133C10.0803 4.58368 9.93197 4.89297 9.64983 4.9923L8.98567 3.10579C8.22602 3.37324 7.82683 4.20598 8.09446 4.96578L9.98086 4.30133ZM9.28995 3.97045C9.57245 3.87094 9.88164 4.01946 9.98093 4.30154L8.09438 4.96557C8.36166 5.72491 9.19425 6.12459 9.95439 5.85685L9.28995 3.97045ZM9.47144 8.38347H13.8102V6.38347H9.47144V8.38347ZM8.01312 6.92515C8.01312 7.73055 8.66604 8.38347 9.47144 8.38347V6.38347C9.77061 6.38347 10.0131 6.62598 10.0131 6.92515H8.01312ZM9.47144 5.46683C8.66604 5.46683 8.01312 6.11975 8.01312 6.92515H10.0131C10.0131 7.22432 9.77061 7.46683 9.47144 7.46683V5.46683ZM13.8102 5.46683H9.47144V7.46683H13.8102V5.46683ZM15.2685 6.92515C15.2685 6.11975 14.6156 5.46683 13.8102 5.46683V7.46683C13.511 7.46683 13.2685 7.22432 13.2685 6.92515H15.2685ZM13.8102 8.38347C14.6156 8.38347 15.2685 7.73055 15.2685 6.92515H13.2685C13.2685 6.62598 13.511 6.38347 13.8102 6.38347V8.38347Z" fill="white" mask="url(#path-1-inside-1)"/>
</svg>
