<svg width="14" height="15" viewBox="0 0 14 15" fill="none" xmlns="http://www.w3.org/2000/svg">
<path d="M1.615 6.43128C1.42601 6.43128 1.24475 6.3562 1.11111 6.22256C0.977475 6.08892 0.902398 5.90767 0.902398 5.71867C0.902398 5.52968 0.977475 5.34843 1.11111 5.21479C1.24475 5.08115 1.42601 5.00607 1.615 5.00607H6.60315C6.98114 5.00607 7.34364 4.85592 7.61092 4.58864C7.8782 4.32137 8.02835 3.95886 8.02835 3.58087C8.02835 3.20289 7.8782 2.84038 7.61092 2.5731C7.34364 2.30583 6.98114 2.15567 6.60315 2.15567C6.21122 2.15567 5.85492 2.31244 5.59838 2.57611C5.53353 2.64531 5.45517 2.70048 5.36814 2.7382C5.28112 2.77591 5.18728 2.79537 5.09244 2.79537C4.99759 2.79537 4.90375 2.77591 4.81673 2.7382C4.7297 2.70048 4.65134 2.64531 4.58649 2.57611C4.30858 2.29819 4.30858 1.84213 4.58649 1.56421C5.10669 1.05114 5.81929 0.730469 6.60315 0.730469C7.35912 0.730469 8.08414 1.03078 8.61869 1.56533C9.15324 2.09989 9.45355 2.8249 9.45355 3.58087C9.45355 4.33685 9.15324 5.06186 8.61869 5.59641C8.08414 6.13097 7.35912 6.43128 6.60315 6.43128H1.615ZM11.5914 7.85648C11.7803 7.85648 11.9616 7.7814 12.0952 7.64776C12.2289 7.51412 12.304 7.33287 12.304 7.14388C12.304 6.95488 12.2289 6.77363 12.0952 6.63999C11.9616 6.50635 11.7803 6.43128 11.5914 6.43128C11.3918 6.43128 11.2137 6.50966 11.0854 6.63793C11.0195 6.70399 10.9412 6.7564 10.855 6.79216C10.7688 6.82792 10.6764 6.84633 10.583 6.84633C10.4897 6.84633 10.3973 6.82792 10.3111 6.79216C10.2249 6.7564 10.1466 6.70399 10.0806 6.63793C9.80985 6.36002 9.80985 5.91108 10.0806 5.63316C10.4654 5.24836 10.9999 5.00607 11.5914 5.00607C12.1583 5.00607 12.7021 5.23131 13.103 5.63222C13.5039 6.03314 13.7292 6.5769 13.7292 7.14388C13.7292 7.71086 13.5039 8.25462 13.103 8.65553C12.7021 9.05645 12.1583 9.28168 11.5914 9.28168H1.61494C1.42595 9.28168 1.2447 9.2066 1.11106 9.07296C0.977421 8.93932 0.902344 8.75807 0.902344 8.56908C0.902344 8.38008 0.977421 8.19883 1.11106 8.06519C1.2447 7.93155 1.42595 7.85648 1.61494 7.85648H11.5914ZM10.8788 12.1321H1.61494C1.42595 12.1321 1.2447 12.057 1.11106 11.9234C0.977421 11.7897 0.902344 11.6085 0.902344 11.4195C0.902344 11.2305 0.977421 11.0492 1.11106 10.9156C1.2447 10.782 1.42595 10.7069 1.61494 10.7069H10.8788C11.4457 10.7069 11.9895 10.9321 12.3904 11.333C12.7913 11.7339 13.0166 12.2777 13.0166 12.8447C13.0166 13.4117 12.7913 13.9554 12.3904 14.3563C11.9895 14.7573 11.4457 14.9825 10.8788 14.9825C10.2873 14.9825 9.75285 14.7402 9.36804 14.3554C9.09725 14.0775 9.09725 13.6285 9.36804 13.3506C9.43397 13.2846 9.51227 13.2322 9.59848 13.1964C9.68468 13.1606 9.7771 13.1422 9.87042 13.1422C9.96375 13.1422 10.0562 13.1606 10.1424 13.1964C10.2286 13.2322 10.3069 13.2846 10.3728 13.3506C10.5011 13.4789 10.6792 13.5573 10.8788 13.5573C11.0677 13.5573 11.249 13.4822 11.3826 13.3486C11.5163 13.2149 11.5914 13.0337 11.5914 12.8447C11.5914 12.6557 11.5163 12.4744 11.3826 12.3408C11.249 12.2072 11.0677 12.1321 10.8788 12.1321Z" fill="white"/>
</svg>
