<svg width="35" height="32" viewBox="0 0 35 32" fill="none" xmlns="http://www.w3.org/2000/svg">
<path fill-rule="evenodd" clip-rule="evenodd" d="M8.79099 9.95377C9.63628 4.8198 13.3335 1.83008 17.5768 1.83008C21.5164 1.83008 24.1562 4.38689 25.2279 7.13779L25.2282 7.13838C25.236 7.15856 25.2442 7.17859 25.2528 7.19845L8.61062 10.5085C8.69761 10.335 8.75869 10.1485 8.79084 9.95468L8.79099 9.95377ZM25.2528 7.19854C25.3763 7.48584 25.568 7.73911 25.8116 7.93621C26.0721 8.14695 26.383 8.2862 26.7137 8.34024L26.714 8.34029C28.4524 8.62365 30.0021 9.33931 31.1086 10.444C32.2037 11.5372 32.9016 13.0462 32.9016 15.0116C32.9016 18.9515 29.6903 21.7632 25.6142 21.7632H8.1998C6.471 21.7632 4.97944 21.3306 3.93659 20.5003C2.91813 19.6895 2.25195 18.4409 2.25195 16.6191C2.25195 15.0396 2.87243 13.8953 3.77624 13.0839C4.69796 12.2564 5.94068 11.7553 7.17101 11.5589C7.57513 11.4959 7.94914 11.3071 8.23988 11.0194C8.39138 10.8695 8.51625 10.6967 8.61062 10.5085L25.2528 7.19854ZM25.2528 7.19854L26.9556 6.85987C28.9381 7.18307 30.7968 8.01312 32.1684 9.38246C33.5516 10.7633 34.4016 12.6569 34.4016 15.0116C34.4016 19.9128 30.3793 23.2632 25.6142 23.2632H8.1998C6.24478 23.2632 4.38741 22.7766 3.0023 21.6738C1.59279 20.5516 0.751953 18.8531 0.751953 16.6191C0.751953 14.5914 1.57039 13.0484 2.77417 11.9677C3.95966 10.9034 5.49254 10.3075 6.93638 10.0774L7.05446 10.818L6.9395 10.0769C7.03225 10.0625 7.11809 10.0192 7.18481 9.95317C7.25142 9.88726 7.29556 9.80205 7.31099 9.70963C8.26534 3.91448 12.537 0.330078 17.5768 0.330078C22.2592 0.330078 25.378 3.39164 26.6254 6.59267C26.6525 6.66206 26.6972 6.7232 26.7551 6.77005C26.8129 6.81684 26.8819 6.84778 26.9553 6.85983L25.2528 7.19845L25.2528 7.19854ZM14.4623 30.2307C14.7103 29.8011 14.8441 29.3102 14.8441 28.8055C14.8441 28.0495 14.5438 27.3245 14.0093 26.7899C13.4747 26.2554 12.7497 25.9551 11.9937 25.9551C11.2099 25.9551 10.4973 26.2757 9.97706 26.7888C9.69915 27.0667 9.69915 27.5228 9.97706 27.8007C10.0419 27.8699 10.1203 27.9251 10.2073 27.9628C10.2943 28.0005 10.3882 28.02 10.483 28.02C10.5779 28.02 10.6717 28.0005 10.7587 27.9628C10.8457 27.9251 10.9241 27.8699 10.989 27.8007C11.2455 27.5371 11.6018 27.3803 11.9937 27.3803C12.3717 27.3803 12.7342 27.5304 13.0015 27.7977C13.2688 28.065 13.4189 28.4275 13.4189 28.8055C13.4189 29.1835 13.2688 29.546 13.0015 29.8133C12.7342 30.0805 12.3717 30.2307 11.9937 30.2307H9.00557C8.81658 30.2307 8.63532 30.3058 8.50168 30.4394C8.36805 30.573 8.29297 30.7543 8.29297 30.9433C8.29297 31.1323 8.36805 31.3135 8.50168 31.4472C8.63532 31.5808 8.81658 31.6559 9.00557 31.6559H11.9937C12.0003 31.6559 12.0068 31.6559 12.0133 31.6558C12.0166 31.6559 12.0199 31.6559 12.0231 31.6559H13.0231H18.0113H24.0113C24.7673 31.6559 25.4923 31.3556 26.0268 30.821C26.5614 30.2865 26.8617 29.5615 26.8617 28.8055C26.8617 28.0495 26.5614 27.3245 26.0268 26.7899C25.4923 26.2554 24.7673 25.9551 24.0113 25.9551C23.2274 25.9551 22.5148 26.2757 21.9946 26.7888C21.7167 27.0667 21.7167 27.5228 21.9946 27.8007C22.0595 27.8699 22.1379 27.9251 22.2249 27.9628C22.3119 28.0005 22.4057 28.02 22.5006 28.02C22.5954 28.02 22.6893 28.0005 22.7763 27.9628C22.8633 27.9251 22.9417 27.8699 23.0065 27.8007C23.2631 27.5371 23.6194 27.3803 24.0113 27.3803C24.3893 27.3803 24.7518 27.5304 25.0191 27.7977C25.2863 28.065 25.4365 28.4275 25.4365 28.8055C25.4365 29.1835 25.2863 29.546 25.0191 29.8133C24.7518 30.0805 24.3893 30.2307 24.0113 30.2307H20.4798C20.7279 29.8011 20.8617 29.3102 20.8617 28.8055C20.8617 28.0495 20.5614 27.3245 20.0268 26.7899C19.4923 26.2554 18.7673 25.9551 18.0113 25.9551C17.2274 25.9551 16.5148 26.2757 15.9946 26.7888C15.7167 27.0667 15.7167 27.5228 15.9946 27.8007C16.0595 27.8699 16.1379 27.9251 16.2249 27.9628C16.3119 28.0005 16.4057 28.02 16.5006 28.02C16.5954 28.02 16.6893 28.0005 16.7763 27.9628C16.8633 27.9251 16.9417 27.8699 17.0065 27.8007C17.2631 27.5371 17.6194 27.3803 18.0113 27.3803C18.3893 27.3803 18.7518 27.5304 19.0191 27.7977C19.2863 28.065 19.4365 28.4275 19.4365 28.8055C19.4365 29.1835 19.2863 29.546 19.0191 29.8133C18.7518 30.0805 18.3893 30.2307 18.0113 30.2307H14.4623Z" fill="white"/>
</svg>
