<svg width="35" height="34" viewBox="0 0 35 34" fill="none" xmlns="http://www.w3.org/2000/svg">
<path fill-rule="evenodd" clip-rule="evenodd" d="M8.52732 9.95377C9.37261 4.8198 13.0698 1.83008 17.3131 1.83008C21.2528 1.83008 23.8925 4.38689 24.9643 7.13779L24.9645 7.13838C24.9724 7.15856 24.9806 7.17859 24.9891 7.19845L8.34696 10.5085C8.43394 10.335 8.49502 10.1485 8.52717 9.95468L8.52732 9.95377ZM8.34695 10.5085C8.34695 10.5085 8.34696 10.5085 8.34696 10.5085L6.79079 10.818L6.67583 10.0769C6.76857 10.0625 6.85442 10.0192 6.92114 9.95317C6.98774 9.88726 7.03189 9.80205 7.04732 9.70963C8.00167 3.91448 12.2733 0.330078 17.3131 0.330078C21.9955 0.330078 25.1143 3.39164 26.3617 6.59267C26.3888 6.66206 26.4335 6.7232 26.4914 6.77005C26.5493 6.81684 26.6183 6.84778 26.6917 6.85983L24.9891 7.19845C24.9891 7.19848 24.9891 7.19851 24.9892 7.19854L8.34695 10.5085ZM8.34695 10.5085C8.25257 10.6967 8.1277 10.8695 7.97621 11.0194C7.68546 11.3071 7.31146 11.4959 6.90734 11.5589C5.67701 11.7553 4.43428 12.2564 3.51257 13.0839C2.60876 13.8953 1.98828 15.0396 1.98828 16.6191C1.98828 18.4409 2.65446 19.6895 3.67292 20.5003C4.71577 21.3306 6.20733 21.7632 7.93613 21.7632H25.3505C29.4266 21.7632 32.6379 18.9515 32.6379 15.0116C32.6379 13.0462 31.94 11.5372 30.845 10.444C29.7384 9.33931 28.1888 8.62365 26.4504 8.34029L26.4501 8.34024C26.1194 8.2862 25.8085 8.14695 25.548 7.93621C25.3044 7.73911 25.1127 7.48584 24.9892 7.19854L26.692 6.85987C28.6745 7.18307 30.5331 8.01312 31.9047 9.38246C33.2879 10.7633 34.1379 12.6569 34.1379 15.0116C34.1379 19.9128 30.1156 23.2632 25.3505 23.2632H7.93613C5.9811 23.2632 4.12374 22.7766 2.73862 21.6738C1.32912 20.5516 0.488281 18.8531 0.488281 16.6191C0.488281 14.5914 1.30672 13.0484 2.5105 11.9677C3.69599 10.9034 5.22887 10.3075 6.67271 10.0774L6.79079 10.818L8.34695 10.5085ZM16.0746 25.5003C16.1265 25.2291 15.9488 24.9671 15.6776 24.9152C15.4064 24.8632 15.1444 25.041 15.0924 25.3122L14.4621 28.6032C14.4184 28.8313 14.5375 29.0594 14.7496 29.154L16.438 29.9064V32.8561C16.438 33.0696 16.5735 33.2595 16.7753 33.3289C16.9772 33.3984 17.2008 33.3321 17.3322 33.1638L20.5785 29.0049C20.7401 28.7979 20.714 28.5013 20.5189 28.3256L19.1851 27.1252L19.4628 25.49C19.509 25.2177 19.3258 24.9595 19.0535 24.9133C18.7813 24.8671 18.5231 25.0503 18.4769 25.3225L18.1531 27.229C18.1244 27.3979 18.1842 27.5698 18.3116 27.6844L19.5034 28.7571L17.438 31.403V29.5818C17.438 29.3844 17.3219 29.2055 17.1416 29.1251L15.5188 28.4019L16.0746 25.5003Z" fill="white"/>
</svg>
