<svg width="39" height="34" viewBox="0 0 39 34" fill="none" xmlns="http://www.w3.org/2000/svg">
<path fill-rule="evenodd" clip-rule="evenodd" d="M26.3164 1.30469C26.3164 0.890474 25.9806 0.554688 25.5664 0.554688C25.1522 0.554688 24.8164 0.890474 24.8164 1.30469V3.70412C24.8164 4.11834 25.1522 4.45412 25.5664 4.45412C25.9806 4.45412 26.3164 4.11834 26.3164 3.70412V1.30469ZM26.7626 6.66437C25.7373 6.47893 24.6829 6.53345 23.6822 6.82363C22.6814 7.11382 21.7614 7.6318 20.9943 8.33698C20.3851 8.89701 19.8855 9.56303 19.5187 10.3008C18.9621 10.2039 18.3784 10.1523 17.7684 10.1523C12.6936 10.1523 8.39188 13.7616 7.43075 19.598C7.41501 19.6923 7.36996 19.7792 7.30201 19.8465C7.23394 19.9138 7.14636 19.958 7.05173 19.9726L7.16669 20.7138L7.04861 19.9731C5.59468 20.2049 4.05132 20.8049 2.85787 21.8764C1.64614 22.9642 0.822266 24.5174 0.822266 26.5587C0.822266 28.808 1.66879 30.5177 3.08746 31.6472C4.48174 32.7572 6.35175 33.2473 8.32067 33.2473H25.8665C30.665 33.2473 34.7146 29.8736 34.7146 24.939C34.7146 22.568 33.8588 20.6616 32.4662 19.2714C31.9014 18.7075 31.2545 18.2344 30.5505 17.8499C30.9834 17.3747 31.3475 16.8387 31.6304 16.257C32.0862 15.32 32.3188 14.2902 32.31 13.2482C32.3012 12.2063 32.0512 11.1805 31.5797 10.2513C31.1082 9.32215 30.4279 8.51477 29.5922 7.89246C28.7564 7.27014 27.788 6.8498 26.7626 6.66437ZM28.9222 18.7415C28.9383 18.7486 28.9547 18.7552 28.9712 18.7611C29.9068 19.1375 30.737 19.6646 31.4065 20.333C32.5109 21.4355 33.2146 22.9573 33.2146 24.939C33.2146 28.9123 29.976 31.7473 25.8665 31.7473H8.32067C6.57798 31.7473 5.07378 31.3112 4.02176 30.4737C2.99413 29.6555 2.32227 28.3958 2.32227 26.5587C2.32227 24.9655 2.94818 23.8111 3.85994 22.9925C4.78961 22.1579 6.04281 21.6527 7.28324 21.4547C7.68924 21.3914 8.06498 21.2017 8.35708 20.9127C8.50809 20.7632 8.63278 20.5912 8.72733 20.4038L25.5101 17.0704C25.6343 17.3567 25.8259 17.6091 26.069 17.8058C26.3307 18.0175 26.6431 18.1574 26.9753 18.2117L26.9756 18.2118C27.6583 18.3231 28.3123 18.5005 28.9222 18.7415ZM25.5101 17.0703L27.2169 16.7313C27.142 16.719 27.0715 16.6874 27.0125 16.6397C26.9534 16.5918 26.9077 16.5294 26.8801 16.4586C25.9389 14.0432 23.9396 11.7068 21.0126 10.6872C21.2787 10.2249 21.6145 9.80442 22.0095 9.44127C22.6061 8.89282 23.3216 8.48998 24.0999 8.26429C24.8782 8.0386 25.6982 7.99621 26.4957 8.14042C27.2931 8.28464 28.0463 8.61155 28.6963 9.09555C29.3463 9.57954 29.8753 10.2075 30.2421 10.9301C30.6088 11.6528 30.8032 12.4505 30.81 13.2609C30.8169 14.0712 30.636 14.8722 30.2815 15.6009C29.9866 16.2073 29.5781 16.75 29.0796 17.2003C28.4795 16.9913 27.8547 16.8353 27.2172 16.7314L25.5101 17.0704L25.5101 17.0703ZM25.5101 17.0703L8.72733 20.4038C8.8159 20.2283 8.87803 20.0393 8.9106 19.843L8.91075 19.8421C9.76283 14.6669 13.4901 11.6523 17.7684 11.6523C21.7406 11.6523 24.4021 14.2304 25.4826 17.0037L25.4829 17.0043C25.4915 17.0265 25.5006 17.0485 25.5101 17.0703ZM34.416 13.3008C34.416 12.8866 34.7518 12.5508 35.166 12.5508H37.5654C37.9797 12.5508 38.3154 12.8866 38.3154 13.3008C38.3154 13.715 37.9797 14.0508 37.5654 14.0508H35.166C34.7518 14.0508 34.416 13.715 34.416 13.3008ZM16.5537 4.28803C16.8465 3.99514 17.3214 3.99514 17.6143 4.28803L19.3112 5.98488C19.6041 6.27777 19.6041 6.75265 19.3112 7.04554C19.0183 7.33843 18.5434 7.33843 18.2505 7.04554L16.5537 5.34869C16.2608 5.0558 16.2608 4.58092 16.5537 4.28803ZM34.5807 5.34869C34.8736 5.0558 34.8736 4.58092 34.5807 4.28803C34.2878 3.99514 33.8129 3.99514 33.52 4.28803L31.8232 5.98488C31.5303 6.27777 31.5303 6.75265 31.8232 7.04554C32.1161 7.33843 32.591 7.33843 32.8838 7.04554L34.5807 5.34869Z" fill="white"/>
</svg>
