<svg width="34" height="33" viewBox="0 0 34 33" fill="none" xmlns="http://www.w3.org/2000/svg">
<path fill-rule="evenodd" clip-rule="evenodd" d="M8.33787 9.72526C9.18316 4.59128 12.8804 1.60156 17.1237 1.60156C21.0633 1.60156 23.7031 4.15837 24.7748 6.90928L24.775 6.90986C24.7829 6.93005 24.7911 6.95007 24.7997 6.96994L8.1575 10.28C8.24449 10.1065 8.30557 9.91995 8.33772 9.72616L8.33787 9.72526ZM24.7997 6.97003C24.9232 7.25732 25.1149 7.51059 25.3585 7.70769C25.619 7.91844 25.9299 8.05768 26.2606 8.11172L26.2609 8.11177C27.9993 8.39513 29.549 9.11079 30.6555 10.2155C31.7506 11.3087 32.4485 12.8177 32.4485 14.7831C32.4485 18.723 29.2371 21.5347 25.1611 21.5347H7.74667C6.01788 21.5347 4.52632 21.1021 3.48347 20.2718C2.465 19.461 1.79883 18.2124 1.79883 16.3906C1.79883 14.811 2.41931 13.6668 3.32312 12.8553C4.24483 12.0278 5.48755 11.5268 6.71788 11.3304C7.12201 11.2673 7.49601 11.0786 7.78676 10.7909C7.93825 10.641 8.06312 10.4682 8.1575 10.28L24.7997 6.97003ZM24.7997 6.97003L26.5025 6.63136C28.485 6.95456 30.3437 7.7846 31.7153 9.15395C33.0985 10.5348 33.9485 12.4284 33.9485 14.7831C33.9485 19.6843 29.9261 23.0347 25.1611 23.0347H7.74667C5.79165 23.0347 3.93429 22.5481 2.54917 21.4453C1.13967 20.3231 0.298828 18.6246 0.298828 16.3906C0.298828 14.3629 1.11727 12.8199 2.32105 11.7392C3.50654 10.6749 5.03942 10.079 6.48326 9.84884L6.60134 10.5895L6.48638 9.84835C6.57912 9.83396 6.66497 9.79068 6.73168 9.72466C6.79829 9.65875 6.84244 9.57353 6.85787 9.48112C7.81221 3.68597 12.0839 0.101562 17.1237 0.101562C21.8061 0.101562 24.9249 3.16313 26.1722 6.36416C26.1993 6.43355 26.2441 6.49468 26.302 6.54153C26.3598 6.58832 26.4288 6.61926 26.5022 6.63131L24.7997 6.96994L24.7997 6.97003ZM11.7068 24.6533C12.0514 24.8831 12.1445 25.3487 11.9148 25.6934L10.1201 28.3853C9.89037 28.73 9.42472 28.8231 9.08007 28.5933C8.73542 28.3636 8.64229 27.8979 8.87206 27.5533L10.6667 24.8613C10.8965 24.5167 11.3621 24.4235 11.7068 24.6533ZM16.1948 24.6533C16.5394 24.8831 16.6325 25.3487 16.4028 25.6934L12.8135 31.0773C12.5837 31.4219 12.1181 31.5151 11.7734 31.2853C11.4288 31.0555 11.3357 30.5899 11.5654 30.2452L15.1547 24.8613C15.3845 24.5167 15.8501 24.4235 16.1948 24.6533ZM20.8913 25.6934C21.1211 25.3487 21.028 24.8831 20.6833 24.6533C20.3387 24.4235 19.873 24.5167 19.6433 24.8613L17.8486 27.5533C17.6189 27.8979 17.712 28.3636 18.0566 28.5933C18.4013 28.8231 18.8669 28.73 19.0967 28.3853L20.8913 25.6934ZM25.1674 24.6533C25.5121 24.8831 25.6052 25.3487 25.3754 25.6934L21.7861 31.0773C21.5564 31.4219 21.0907 31.5151 20.7461 31.2853C20.4014 31.0555 20.3083 30.5899 20.5381 30.2452L24.1273 24.8613C24.3571 24.5167 24.8228 24.4235 25.1674 24.6533ZM6.88477 31.4727C6.88477 31.0584 7.22055 30.7227 7.63477 30.7227H7.63723C8.05144 30.7227 8.38723 31.0584 8.38723 31.4727C8.38723 31.8869 8.05144 32.2227 7.63723 32.2227H7.63477C7.22055 32.2227 6.88477 31.8869 6.88477 31.4727ZM16.5293 30.7227C16.1151 30.7227 15.7793 31.0584 15.7793 31.4727C15.7793 31.8869 16.1151 32.2227 16.5293 32.2227H16.5318C16.946 32.2227 17.2818 31.8869 17.2818 31.4727C17.2818 31.0584 16.946 30.7227 16.5318 30.7227H16.5293Z" fill="white"/>
</svg>
