<?xml version="1.0" standalone="no"?>
<!DOCTYPE svg PUBLIC "-//W3C//DTD SVG 20010904//EN"
 "http://www.w3.org/TR/2001/REC-SVG-20010904/DTD/svg10.dtd">
<svg version="1.0" xmlns="http://www.w3.org/2000/svg"
 width="411.000000pt" height="720.000000pt" viewBox="0 0 411.000000 720.000000"
 preserveAspectRatio="xMidYMid meet">
<metadata>
Created by potrace 1.15, written by Peter Selinger 2001-2017
</metadata>
<g transform="translate(0.000000,720.000000) scale(0.100000,-0.100000)"
fill="#000000" stroke="none">
<path d="M1770 7185 c-47 -7 -105 -16 -129 -20 -35 -7 -42 -5 -36 5 5 9 4 11
-4 6 -6 -4 -9 -12 -6 -17 4 -5 -3 -9 -15 -9 -13 0 -19 4 -14 12 4 7 3 8 -5 4
-6 -4 -9 -12 -6 -17 4 -5 -1 -9 -9 -9 -33 0 -258 -80 -361 -129 -106 -50 -135
-61 -105 -40 13 9 13 10 0 6 -8 -2 -14 -9 -13 -15 1 -6 -23 -25 -55 -42 -31
-18 -85 -53 -120 -77 -35 -25 -65 -43 -67 -41 -2 2 32 28 75 58 44 29 80 55
80 57 0 6 -15 -4 -97 -60 -40 -27 -71 -53 -68 -57 6 -10 -33 -45 -42 -37 -3 4
-1 7 5 7 7 0 12 5 12 11 0 8 -5 8 -15 -1 -8 -7 -13 -16 -10 -20 7 -11 -30 -41
-46 -38 -8 2 -13 -2 -12 -8 1 -6 -15 -26 -35 -45 -31 -29 -33 -29 -12 -5 40
46 1 19 -67 -48 -58 -57 -85 -95 -46 -65 10 7 0 -6 -22 -29 -40 -43 -59 -56
-34 -24 13 15 12 16 -4 3 -10 -8 -16 -20 -13 -27 2 -7 -4 -20 -15 -30 -10 -9
-19 -14 -19 -9 0 4 -7 2 -15 -5 -11 -9 -12 -15 -5 -20 7 -4 5 -12 -6 -21 -16
-12 -17 -12 -9 1 8 13 7 13 -9 1 -13 -11 -14 -16 -4 -22 13 -9 11 -10 -14 -13
-7 -1 -12 -9 -10 -18 1 -9 -3 -20 -9 -24 -8 -5 -9 -3 -4 7 8 12 6 12 -8 0 -19
-15 -23 -36 -5 -25 7 4 8 3 4 -5 -4 -6 -11 -9 -16 -6 -5 3 -11 1 -15 -5 -3 -5
-1 -10 5 -10 6 0 8 -5 5 -10 -4 -6 -11 -7 -17 -4 -7 5 -9 1 -5 -9 4 -10 2 -16
-5 -14 -6 1 -13 -4 -16 -12 -3 -9 0 -11 8 -6 9 5 11 4 6 -4 -4 -6 -11 -9 -16
-6 -12 7 -83 -123 -76 -141 3 -8 -1 -14 -8 -14 -18 0 -28 -27 -13 -34 7 -2 4
-5 -5 -5 -10 -1 -18 -6 -18 -12 0 -5 5 -7 11 -4 15 10 -19 -66 -36 -79 -14
-11 -39 -66 -29 -66 3 0 10 14 16 31 6 16 12 28 14 26 7 -7 -18 -67 -28 -67
-5 0 -7 -4 -4 -9 8 -13 -15 -74 -33 -89 -10 -8 -10 -11 -2 -6 11 5 12 1 7 -22
-4 -16 -11 -30 -16 -32 -4 -2 -6 -13 -3 -25 4 -18 3 -19 -6 -7 -8 11 -9 5 -4
-24 4 -25 3 -37 -4 -33 -6 4 -8 -4 -5 -20 3 -16 1 -24 -5 -20 -6 4 -9 -3 -6
-16 2 -12 -1 -42 -6 -67 l-10 -45 4 44 c2 25 0 39 -4 32 -5 -7 -8 -169 -8
-359 1 -191 4 -331 8 -312 5 29 7 30 8 9 0 -14 4 -48 8 -74 5 -38 3 -46 -7
-40 -9 5 -11 4 -6 -4 4 -6 12 -8 18 -5 7 4 9 -6 6 -29 -2 -20 -1 -34 3 -31 10
6 31 -124 23 -138 -4 -7 -3 -8 4 -4 8 5 12 -2 12 -19 0 -17 -4 -24 -12 -19 -7
4 -8 3 -4 -5 4 -6 12 -9 17 -6 5 4 9 -3 9 -15 0 -13 -4 -19 -12 -14 -7 4 -8 3
-4 -5 4 -6 11 -9 15 -7 4 3 15 -27 24 -67 20 -85 21 -90 5 -81 -7 5 -8 3 -4
-5 5 -7 11 -10 14 -6 5 5 81 -235 82 -258 0 -5 -6 -5 -12 -2 -7 4 -6 1 3 -7
23 -19 51 -106 36 -111 -9 -3 -8 -8 2 -18 12 -12 13 -12 6 1 -5 9 -4 12 1 7 5
-5 9 -12 9 -15 0 -4 4 -13 9 -21 6 -10 5 -12 -2 -7 -7 4 -12 3 -12 -2 0 -6 6
-12 14 -15 7 -3 16 -15 19 -26 3 -12 1 -19 -3 -16 -12 8 -1 -48 12 -60 8 -7 9
-5 4 5 -4 8 0 6 8 -4 9 -11 16 -25 16 -32 0 -7 3 -20 7 -30 5 -13 3 -15 -8
-10 -9 5 -8 2 2 -6 20 -17 61 -126 53 -140 -4 -6 -2 -8 3 -5 6 4 14 -4 17 -17
3 -13 9 -32 12 -43 6 -16 5 -16 -10 2 -17 20 -17 20 -7 -2 6 -12 15 -23 20
-25 8 -3 142 -332 140 -346 0 -4 -7 7 -14 23 -19 40 -19 16 0 -26 8 -19 15
-27 15 -19 0 9 6 5 15 -10 16 -28 20 -54 5 -30 -8 13 -10 12 -10 -2 0 -10 6
-18 14 -18 7 0 31 -43 56 -102 49 -121 57 -143 35 -105 -21 37 -29 35 -10 -3
9 -16 19 -30 24 -30 4 0 13 -11 19 -25 17 -36 14 -45 -3 -15 -8 14 -14 19 -15
13 0 -7 9 -22 21 -34 23 -23 57 -95 40 -84 -6 3 -11 1 -11 -4 0 -6 6 -11 13
-11 15 0 42 -49 32 -58 -3 -3 -5 -1 -5 4 0 6 -7 19 -15 30 -14 17 -14 15 0
-13 8 -18 20 -33 25 -33 5 0 7 -6 4 -13 -6 -17 24 -89 35 -82 5 2 12 -2 15
-11 3 -8 2 -12 -4 -9 -14 9 -12 -6 6 -35 14 -23 14 -23 9 -3 -9 34 1 28 14 -7
6 -18 6 -28 1 -25 -6 4 -10 1 -10 -4 0 -6 8 -11 18 -12 9 0 12 -3 5 -5 -14 -6
26 -103 43 -104 6 0 10 -10 10 -22 -1 -13 4 -22 11 -21 7 2 10 -4 7 -12 -3 -7
-1 -22 6 -32 10 -16 10 -15 5 4 -9 34 1 28 14 -7 7 -22 7 -29 -1 -24 -6 4 -9
1 -6 -7 3 -8 11 -13 17 -11 7 1 10 -2 7 -7 -4 -5 0 -12 6 -14 10 -4 10 -6 1
-6 -16 -1 -5 -31 11 -31 14 0 40 -49 31 -58 -3 -3 -5 -1 -5 4 0 6 -7 19 -15
30 -14 17 -14 15 0 -13 8 -18 19 -33 24 -33 5 0 12 -7 15 -16 4 -10 2 -13 -6
-8 -8 5 -9 2 -5 -10 4 -10 7 -20 7 -22 0 -2 7 -4 15 -4 8 0 12 -6 9 -14 -7
-18 14 -58 26 -51 6 3 7 -1 4 -9 -5 -13 21 -76 32 -76 2 0 -2 13 -11 30 -22
42 -18 52 5 10 10 -19 16 -43 13 -54 -3 -12 -1 -16 6 -12 11 7 15 -5 12 -31
-3 -19 19 -54 29 -48 4 3 6 -4 3 -15 -4 -14 0 -20 11 -20 9 0 13 -6 10 -14 -8
-20 194 -418 208 -410 7 4 8 3 4 -4 -4 -7 -3 -12 3 -12 6 0 7 -7 4 -17 -4 -11
-3 -14 5 -9 11 7 17 -6 13 -28 -4 -18 11 -48 18 -37 5 7 12 2 20 -15 11 -25
10 -26 -4 -14 -13 11 -15 10 -10 -3 4 -8 15 -17 26 -20 10 -3 19 -11 18 -19 0
-10 -2 -10 -6 0 -2 6 -8 12 -12 12 -5 0 12 -38 36 -85 24 -47 48 -83 52 -81 5
3 13 -7 20 -22 11 -25 10 -26 -4 -8 -24 32 -17 9 15 -47 31 -54 42 -59 15 -7
-9 17 -13 30 -10 30 2 0 16 -23 31 -51 14 -28 21 -48 15 -44 -16 9 -13 -8 4
-31 15 -19 15 -19 9 1 -4 15 -4 17 4 6 6 -8 8 -20 5 -27 -6 -16 66 -146 77
-139 4 3 11 -2 14 -11 4 -9 2 -13 -5 -8 -7 4 -10 1 -7 -7 3 -8 11 -13 17 -11
7 1 10 -2 6 -7 -8 -13 33 -93 44 -86 5 3 12 -2 15 -11 4 -9 2 -13 -5 -8 -7 4
-10 1 -7 -7 3 -8 11 -13 17 -11 7 1 10 -2 6 -8 -9 -15 94 -202 107 -194 7 4 8
2 4 -4 -8 -14 30 -93 43 -89 5 1 17 -7 26 -18 12 -14 18 -16 21 -7 3 6 11 9
17 5 7 -4 8 0 4 11 -4 10 -3 15 3 11 5 -3 14 3 19 14 14 25 14 34 0 25 -8 -4
-8 0 0 15 7 11 14 21 17 21 3 0 2 -6 -2 -12 -5 -9 -2 -9 9 1 18 14 24 36 7 26
-6 -3 -7 1 -4 9 3 9 10 14 14 11 5 -3 11 -1 15 5 3 5 1 10 -5 10 -6 0 -8 5 -5
10 4 6 11 7 17 4 8 -5 9 -1 5 10 -4 10 -3 15 3 11 12 -7 63 92 55 106 -4 5 -1
8 6 7 6 -2 14 3 17 11 3 8 0 11 -7 7 -7 -4 -9 -1 -5 8 3 9 11 14 16 13 6 -1
13 4 16 12 3 9 0 11 -8 6 -9 -6 -9 -3 -1 14 7 11 14 21 17 21 3 0 2 -5 -2 -12
-5 -7 -3 -8 5 -4 7 5 10 15 7 23 -3 8 -2 11 4 8 5 -3 14 3 19 14 16 29 13 38
-4 15 -14 -18 -15 -17 -4 8 7 15 16 26 22 25 5 -1 12 4 15 12 3 9 0 11 -8 6
-9 -6 -9 -3 0 14 6 12 16 18 22 15 8 -5 9 -1 5 10 -4 10 -3 15 3 11 5 -3 24
22 41 57 22 44 26 58 14 48 -15 -13 -15 -8 4 28 12 23 24 42 27 42 2 0 0 -9
-6 -19 -17 -33 -11 -38 9 -6 12 21 15 32 7 37 -7 5 -5 8 4 8 9 0 28 25 44 57
20 41 23 53 10 42 -16 -13 -16 -12 0 19 18 34 29 43 19 14 -10 -27 1 -11 30
43 20 37 22 44 7 26 -11 -13 -20 -19 -20 -15 1 15 26 44 39 44 6 0 11 5 11 11
0 5 -5 7 -10 4 -6 -4 -5 5 2 20 8 19 14 22 21 13 6 -9 7 -6 4 10 -3 12 -1 20
4 17 4 -3 22 21 38 54 22 42 27 61 18 64 -7 3 -5 6 6 6 9 1 17 6 17 12 0 5 -5
7 -10 4 -6 -4 29 72 77 169 48 96 91 172 97 169 5 -4 7 1 3 11 -4 10 -3 15 3
11 5 -3 30 35 55 85 25 49 41 90 35 90 -5 0 -10 -5 -10 -12 0 -6 -2 -9 -5 -6
-3 3 6 25 20 49 13 24 25 40 25 34 1 -5 18 24 39 65 27 52 35 77 27 82 -7 5
-5 8 5 8 18 0 34 27 19 32 -5 2 0 21 11 43 18 37 18 35 3 -12 -3 -10 6 2 19
27 18 32 22 47 13 52 -7 5 -5 8 5 8 20 0 33 27 16 34 -9 3 -9 5 0 5 7 1 17 11
23 24 11 22 11 22 -6 2 -15 -18 -16 -18 -10 -2 3 10 6 21 6 23 0 2 6 4 13 4 8
0 19 11 25 25 7 14 8 25 2 25 -5 0 -7 7 -4 15 4 8 9 13 13 10 4 -2 17 16 29
40 11 24 17 45 13 47 -5 2 -2 20 6 41 12 29 18 35 25 25 7 -9 8 -7 5 9 -3 12
-1 21 4 20 11 -3 90 171 79 175 -5 2 6 36 22 76 17 40 34 69 37 63 3 -5 14 9
23 32 13 32 14 37 3 23 -8 -11 -15 -24 -15 -30 0 -5 -2 -7 -5 -4 -7 7 16 58
26 58 5 0 13 10 19 23 11 21 10 21 -4 3 -9 -11 -16 -15 -16 -9 0 7 6 18 13 25
6 7 12 18 12 23 0 25 79 205 90 205 7 0 15 10 18 23 6 21 6 21 -8 3 -8 -11
-15 -15 -15 -9 0 5 11 22 25 37 14 15 25 30 25 34 0 4 -7 -2 -15 -12 -8 -11
-15 -17 -15 -13 0 14 33 88 37 83 3 -2 0 -14 -7 -25 -6 -12 -8 -21 -5 -21 6 0
45 87 45 98 -1 4 -7 -4 -15 -18 -20 -36 -18 -20 6 44 12 31 26 56 31 56 5 0 7
4 4 9 -8 13 11 62 29 75 16 12 50 100 35 91 -6 -3 -10 -12 -10 -20 0 -8 -4
-16 -10 -20 -5 -3 -5 7 1 25 6 16 15 30 19 30 4 0 8 6 7 13 -1 34 4 57 13 57
6 0 6 -10 -1 -27 -7 -19 -7 -25 0 -18 6 6 12 19 14 30 1 11 7 27 12 35 7 13 6
13 -7 2 -14 -11 -16 -10 -11 7 3 12 9 19 13 16 5 -3 6 5 2 17 -3 14 -1 19 6
14 6 -3 14 -1 18 5 4 8 3 9 -4 5 -21 -13 -13 23 11 45 12 12 16 19 10 15 -22
-12 -14 22 10 45 12 12 16 18 8 14 -10 -5 -12 -3 -8 11 4 11 9 31 13 46 3 16
10 25 15 22 5 -3 7 1 4 8 -3 7 8 54 25 103 16 50 28 80 26 67 -2 -12 -1 -20 4
-17 4 3 10 16 12 30 3 15 1 22 -5 18 -6 -4 -8 3 -3 18 3 13 14 52 23 87 9 36
19 58 23 52 5 -8 9 -4 13 9 3 13 1 19 -6 14 -6 -4 -8 2 -4 18 4 13 12 50 18
81 7 35 16 55 22 51 6 -3 7 -1 3 5 -8 14 35 243 45 236 8 -4 19 21 18 39 0 7
-4 3 -9 -8 l-9 -20 0 20 c0 11 6 67 14 125 22 161 19 448 -5 600 -12 69 -27
150 -35 181 -18 69 -18 72 -2 64 6 -4 4 0 -6 8 -21 17 -40 74 -27 82 10 6 -7
62 -21 70 -4 3 -1 -11 7 -32 9 -21 12 -34 8 -30 -14 13 -76 171 -76 192 0 34
-30 95 -47 95 -14 0 -14 2 -1 10 13 9 8 14 -12 12 -3 -1 -9 5 -12 14 -3 8 -2
12 4 9 6 -3 10 -1 10 4 0 6 -7 11 -15 11 -8 0 -19 10 -26 21 -8 15 -8 19 0 15
14 -9 14 0 0 25 -5 11 -14 17 -19 14 -5 -3 -12 0 -16 6 -4 8 -3 9 4 5 18 -11
14 10 -5 25 -14 12 -16 12 -8 0 5 -9 4 -12 -3 -7 -6 4 -9 13 -6 20 3 8 0 17
-7 22 -8 5 -10 3 -4 -6 5 -8 4 -11 -3 -6 -6 4 -9 13 -6 20 3 7 -5 24 -16 37
-12 13 -18 17 -14 9 7 -13 5 -13 -8 -2 -10 8 -14 20 -11 29 4 10 2 14 -4 10
-6 -4 -17 1 -24 10 -12 14 -12 15 -1 9 11 -7 12 -4 3 13 -7 11 -14 21 -17 21
-3 0 -2 -6 2 -12 4 -7 -3 -4 -15 7 -13 11 -27 29 -32 40 -9 18 -9 19 4 3 8
-10 18 -18 22 -18 5 0 0 9 -10 20 -10 11 -21 17 -25 15 -11 -7 -111 111 -102
119 4 4 2 6 -4 4 -13 -4 -184 141 -181 155 1 5 -5 12 -13 14 -13 4 -13 3 0 -6
8 -6 10 -11 4 -11 -16 0 -35 25 -26 35 4 5 2 5 -4 2 -14 -8 -180 101 -176 115
1 5 -1 7 -6 4 -5 -3 -60 21 -123 53 -200 103 -423 174 -648 205 -136 19 -448
20 -571 1z"/>
</g>
</svg>
