<svg width="10" height="15" viewBox="0 0 10 15" fill="none" xmlns="http://www.w3.org/2000/svg">
<path fill-rule="evenodd" clip-rule="evenodd" d="M5.59844 13.5052C5.59844 13.8366 5.32981 14.1052 4.99844 14.1052C4.66707 14.1052 4.39844 13.8366 4.39844 13.5052V3.03055L1.98709 5.48618C1.75492 5.72261 1.37503 5.72607 1.1386 5.4939C0.902161 5.26172 0.898705 4.88184 1.13088 4.6454L4.54099 1.17267C4.65104 1.04313 4.81514 0.960938 4.99844 0.960938C5.17022 0.960938 5.32515 1.03313 5.43453 1.14884L8.86804 4.6454C9.10021 4.88184 9.09675 5.26172 8.86032 5.4939C8.62388 5.72607 8.244 5.72261 8.01183 5.48618L5.59844 3.02847V13.5052Z" fill="white"/>
</svg>
