<svg width="9" height="15" viewBox="0 0 9 15" fill="none" xmlns="http://www.w3.org/2000/svg">
<path fill-rule="evenodd" clip-rule="evenodd" d="M4.65117 1.56289C4.65117 1.23152 4.38254 0.962891 4.05117 0.962891C3.7198 0.962891 3.45117 1.23152 3.45117 1.56289V12.0373L1.0398 9.58194C0.807619 9.34551 0.427735 9.34207 0.191311 9.57426C-0.0451143 9.80644 -0.0485513 10.1863 0.183634 10.4228L3.59993 13.9014C3.7099 14.0268 3.87129 14.106 4.05117 14.106C4.14308 14.106 4.23015 14.0853 4.30801 14.0484C4.37161 14.0184 4.43005 13.9772 4.48028 13.926L7.92075 10.4228C8.15294 10.1863 8.1495 9.80644 7.91307 9.57426C7.67665 9.34207 7.29677 9.34551 7.06458 9.58194L4.65117 12.0394V1.56289Z" fill="white"/>
</svg>
