<svg width="16" height="14" viewBox="0 0 16 14" fill="none" xmlns="http://www.w3.org/2000/svg">
<path d="M0.671875 7.82692C0.671875 7.66195 0.731869 7.52697 0.851858 7.42199C0.956848 7.317 1.09371 7.26451 1.26244 7.26451H2.64606C2.80729 7.26451 2.94041 7.31794 3.0454 7.4248C3.15039 7.53166 3.20288 7.6657 3.20288 7.82692C3.20288 7.99565 3.14945 8.13719 3.04258 8.25155C2.93572 8.3659 2.80354 8.42308 2.64606 8.42308H1.26244C1.10121 8.42308 0.962472 8.36403 0.846233 8.24592C0.729994 8.12782 0.671875 7.98815 0.671875 7.82692ZM2.64606 3.1139C2.64606 2.94518 2.69668 2.8102 2.79792 2.70897C2.91791 2.58898 3.05852 2.52899 3.21975 2.52899C3.39224 2.52899 3.52722 2.58898 3.62472 2.70897L4.59775 3.68756C4.87522 3.95002 4.87522 4.21998 4.59775 4.49744C4.48526 4.60992 4.35589 4.66616 4.20966 4.66616C4.07842 4.66616 3.94343 4.60992 3.8047 4.49744L2.79792 3.51884C2.69668 3.41011 2.64606 3.27513 2.64606 3.1139ZM3.8272 11.0777C3.8272 10.9202 3.88719 10.7815 4.00718 10.6615C4.11592 10.5528 4.2509 10.4984 4.41214 10.4984H6.34133C6.40507 10.4984 6.46132 10.5134 6.51006 10.5434L7.9218 11.8763L9.35604 10.5434C9.39728 10.5134 9.4554 10.4984 9.5304 10.4984H11.5102C11.6714 10.4984 11.8092 10.5546 11.9236 10.6671C12.038 10.7796 12.0951 10.9164 12.0951 11.0777C12.0951 11.2389 12.038 11.3767 11.9236 11.491C11.8092 11.6054 11.6714 11.6626 11.5102 11.6626H9.90161L8.01742 13.3667C7.94242 13.4192 7.87681 13.4192 7.82056 13.3667L5.97011 11.6626H4.41214C4.2509 11.6626 4.11311 11.6054 3.99874 11.491C3.88438 11.3767 3.8272 11.2389 3.8272 11.0777ZM4.38964 7.82692C4.38964 8.42308 4.50588 8.948 4.73836 9.40168C4.7721 9.46542 4.82647 9.49729 4.90147 9.49729H6.02073C6.06948 9.49729 6.09948 9.48229 6.11073 9.4523C6.12197 9.4223 6.10698 9.38668 6.06573 9.34544C5.70951 8.89926 5.53141 8.39309 5.53141 7.82692C5.53141 7.16703 5.76763 6.60555 6.24009 6.1425C6.71254 5.67944 7.28249 5.44792 7.94992 5.44792C8.60986 5.44792 9.17512 5.68038 9.6457 6.14531C10.1163 6.61024 10.3516 7.17078 10.3516 7.82692C10.3516 8.39309 10.1735 8.89926 9.81724 9.34544C9.776 9.38668 9.761 9.4223 9.77225 9.4523C9.7835 9.48229 9.81349 9.49729 9.86224 9.49729H10.9928C11.0715 9.49729 11.1202 9.46542 11.139 9.40168C11.3865 8.933 11.5102 8.40808 11.5102 7.82692C11.5102 7.35075 11.4155 6.89238 11.2262 6.45182C11.0368 6.01127 10.7828 5.63164 10.4641 5.31294C10.1453 4.99424 9.76662 4.74021 9.32792 4.55087C8.88921 4.36152 8.42988 4.26685 7.94992 4.26685C7.46997 4.26685 7.01064 4.36152 6.57193 4.55087C6.13322 4.74021 5.75451 4.99424 5.43579 5.31294C5.11707 5.63164 4.86303 6.01127 4.67368 6.45182C4.48432 6.89238 4.38964 7.35075 4.38964 7.82692ZM7.36498 2.54024V1.14546C7.36498 0.984231 7.42216 0.84644 7.53653 0.732083C7.65089 0.617726 7.78869 0.560547 7.94992 0.560547C8.11116 0.560547 8.24896 0.617726 8.36332 0.732083C8.47768 0.84644 8.53487 0.984231 8.53487 1.14546V2.54024C8.53487 2.70147 8.47768 2.83926 8.36332 2.95361C8.24896 3.06797 8.11116 3.12515 7.94992 3.12515C7.78869 3.12515 7.65089 3.06797 7.53653 2.95361C7.42216 2.83926 7.36498 2.70147 7.36498 2.54024ZM11.1277 4.0925C11.1277 3.92378 11.1802 3.7888 11.2852 3.68756L12.2639 2.70897C12.3614 2.58898 12.4964 2.52899 12.6688 2.52899C12.8338 2.52899 12.9707 2.58617 13.0794 2.70053C13.1882 2.81489 13.2425 2.95268 13.2425 3.1139C13.2425 3.28263 13.1919 3.41761 13.0907 3.51884L12.0951 4.49744C11.9564 4.60992 11.8177 4.66616 11.6789 4.66616C11.5215 4.66616 11.3902 4.61086 11.2852 4.50025C11.1802 4.38964 11.1277 4.25373 11.1277 4.0925ZM12.6801 7.82692C12.6801 7.6657 12.7326 7.53166 12.8376 7.4248C12.9426 7.31794 13.0757 7.26451 13.2369 7.26451H14.6262C14.7874 7.26451 14.9252 7.31888 15.0396 7.42761C15.1539 7.53634 15.2111 7.66945 15.2111 7.82692C15.2111 7.98815 15.1539 8.12782 15.0396 8.24592C14.9252 8.36403 14.7874 8.42308 14.6262 8.42308H13.2369C13.0794 8.42308 12.9473 8.3659 12.8404 8.25155C12.7335 8.13719 12.6801 7.99565 12.6801 7.82692Z" fill="white"/>
</svg>
