<svg width="24" height="24" viewBox="0 0 24 24" fill="none" xmlns="http://www.w3.org/2000/svg">
<path fill-rule="evenodd" clip-rule="evenodd" d="M11.5176 0.09375C11.9318 0.09375 12.2676 0.429536 12.2676 0.84375V3.32088C12.2676 3.73509 11.9318 4.07088 11.5176 4.07088C11.1034 4.07088 10.7676 3.73509 10.7676 3.32088V0.84375C10.7676 0.429536 11.1034 0.09375 11.5176 0.09375ZM11.5176 19.084C11.9318 19.084 12.2676 19.4198 12.2676 19.834V22.3111C12.2676 22.7253 11.9318 23.0611 11.5176 23.0611C11.1034 23.0611 10.7676 22.7253 10.7676 22.3111V19.834C10.7676 19.4198 11.1034 19.084 11.5176 19.084ZM19.6393 4.51861C19.9322 4.22572 19.9322 3.75084 19.6393 3.45795C19.3464 3.16506 18.8715 3.16506 18.5786 3.45795L16.8271 5.20949C16.5342 5.50238 16.5342 5.97725 16.8271 6.27015C17.12 6.56304 17.5949 6.56304 17.8878 6.27015L19.6393 4.51861ZM6.21155 16.8857C6.50445 17.1786 6.50445 17.6535 6.21155 17.9463L4.46002 19.6979C4.16712 19.9908 3.69225 19.9908 3.39936 19.6979C3.10646 19.405 3.10646 18.9301 3.39936 18.6372L5.15089 16.8857C5.44379 16.5928 5.91866 16.5928 6.21155 16.8857ZM19.7773 10.8281C19.3631 10.8281 19.0273 11.1639 19.0273 11.5781C19.0273 11.9923 19.3631 12.3281 19.7773 12.3281H22.2545C22.6687 12.3281 23.0045 11.9923 23.0045 11.5781C23.0045 11.1639 22.6687 10.8281 22.2545 10.8281H19.7773ZM0.0351562 11.5781C0.0351562 11.1639 0.370943 10.8281 0.785156 10.8281H3.26228C3.6765 10.8281 4.01228 11.1639 4.01228 11.5781C4.01228 11.9923 3.6765 12.3281 3.26228 12.3281H0.785156C0.370943 12.3281 0.0351562 11.9923 0.0351562 11.5781ZM17.8878 16.8857C17.5949 16.5928 17.12 16.5928 16.8271 16.8857C16.5342 17.1786 16.5342 17.6535 16.8271 17.9463L18.5786 19.6979C18.8715 19.9908 19.3464 19.9908 19.6393 19.6979C19.9322 19.405 19.9322 18.9301 19.6393 18.6372L17.8878 16.8857ZM3.39936 3.45795C3.69225 3.16506 4.16712 3.16506 4.46002 3.45795L6.21155 5.20949C6.50445 5.50238 6.50445 5.97725 6.21155 6.27015C5.91866 6.56304 5.44379 6.56304 5.15089 6.27015L3.39936 4.51861C3.10646 4.22572 3.10646 3.75084 3.39936 3.45795ZM8.13867 11.5778C8.13867 9.71184 9.6513 8.19922 11.5172 8.19922C13.3831 8.19922 14.8958 9.71184 14.8958 11.5778C14.8958 13.4437 13.3831 14.9563 11.5172 14.9563C9.6513 14.9563 8.13867 13.4437 8.13867 11.5778ZM11.5172 6.69922C8.82287 6.69922 6.63867 8.88342 6.63867 11.5778C6.63867 14.2721 8.82287 16.4563 11.5172 16.4563C14.2116 16.4563 16.3958 14.2721 16.3958 11.5778C16.3958 8.88342 14.2116 6.69922 11.5172 6.69922Z" fill="white"/>
</svg>
