<?xml version="1.0"?>
<svg xmlns="http://www.w3.org/2000/svg" xmlns:xlink="http://www.w3.org/1999/xlink" version="1.1" id="Capa_1" x="0px" y="0px" viewBox="0 0 470 470" style="enable-background:new 0 0 470 470;" xml:space="preserve" width="512px" height="512px"><g><g>
	<path d="M276.208,399.916c-2.071-3.588-6.66-4.816-10.245-2.745l-22.718,13.116v-26.232c0-4.142-3.357-7.5-7.5-7.5   s-7.5,3.358-7.5,7.5v26.232l-22.718-13.116c-3.59-2.072-8.175-0.842-10.245,2.745c-2.071,3.587-0.842,8.174,2.745,10.245   l22.718,13.116l-22.718,13.116c-3.587,2.071-4.816,6.658-2.745,10.245c1.389,2.406,3.91,3.751,6.502,3.751   c1.272,0,2.563-0.324,3.743-1.006l22.718-13.116V462.5c0,4.142,3.357,7.5,7.5,7.5s7.5-3.358,7.5-7.5v-26.232l22.718,13.116   c1.182,0.682,2.471,1.006,3.743,1.006c2.592,0,5.113-1.345,6.502-3.751c2.071-3.587,0.842-8.174-2.745-10.245l-22.718-13.116   l22.718-13.116C277.05,408.09,278.28,403.503,276.208,399.916z" data-original="#000000" class="active-path" data-old_color="#000000" fill="#FFFFFF"/>
	<path d="M172.059,310.679c-2.07-3.588-6.66-4.816-10.245-2.745l-22.718,13.116v-26.232c0-4.142-3.357-7.5-7.5-7.5   s-7.5,3.358-7.5,7.5v26.232l-22.718-13.116c-3.59-2.072-8.175-0.843-10.245,2.745c-2.071,3.587-0.842,8.174,2.745,10.245   l22.718,13.116l-22.718,13.116c-3.587,2.071-4.816,6.658-2.745,10.245c1.389,2.406,3.91,3.751,6.502,3.751   c1.272,0,2.563-0.324,3.743-1.006l22.718-13.116v26.232c0,4.142,3.357,7.5,7.5,7.5s7.5-3.358,7.5-7.5v-26.232l22.718,13.116   c1.182,0.682,2.471,1.006,3.743,1.006c2.592,0,5.113-1.345,6.502-3.751c2.071-3.587,0.842-8.174-2.745-10.245l-22.718-13.116   l22.718-13.116C172.901,318.853,174.13,314.266,172.059,310.679z" data-original="#000000" class="active-path" data-old_color="#000000" fill="#FFFFFF"/>
	<path d="M380.358,310.679c-2.07-3.588-6.66-4.816-10.245-2.745l-22.718,13.116v-26.232c0-4.142-3.357-7.5-7.5-7.5   s-7.5,3.358-7.5,7.5v26.232l-22.718-13.116c-3.59-2.072-8.176-0.843-10.245,2.745c-2.071,3.587-0.842,8.174,2.745,10.245   l22.718,13.116l-22.718,13.116c-3.587,2.071-4.816,6.658-2.745,10.245c1.389,2.406,3.91,3.751,6.502,3.751   c1.272,0,2.563-0.324,3.743-1.006l22.718-13.116v26.232c0,4.142,3.357,7.5,7.5,7.5s7.5-3.358,7.5-7.5v-26.232l22.718,13.116   c1.182,0.682,2.471,1.006,3.743,1.006c2.592,0,5.113-1.345,6.502-3.751c2.071-3.587,0.842-8.174-2.745-10.245l-22.718-13.116   l22.718-13.116C381.2,318.853,382.429,314.266,380.358,310.679z" data-original="#000000" class="active-path" data-old_color="#000000" fill="#FFFFFF"/>
	<path d="M445.581,176.34c-0.122-0.025-0.244-0.036-0.366-0.055c-3.928-0.592-7.674,1.99-8.465,5.929   c-6.369,31.683-34.486,54.679-66.855,54.679H161.596c-4.143,0-7.5,3.358-7.5,7.5c0,4.142,3.357,7.5,7.5,7.5h208.299   c39.487,0,73.789-28.061,81.561-66.723C452.272,181.11,449.642,177.156,445.581,176.34z" data-original="#000000" class="active-path" data-old_color="#000000" fill="#FFFFFF"/>
	<path d="M131.596,236.893h-30c-37.605,0-68.2-30.595-68.2-68.201s30.595-68.201,68.2-68.201c5.968,0,11.922,0.785,17.697,2.332   c1.924,0.516,3.976,0.245,5.702-0.755c1.725-1,2.98-2.644,3.49-4.571C141.333,48.924,185.441,15,235.746,15   s94.412,33.924,107.26,82.497c0.51,1.927,1.766,3.572,3.49,4.571c1.726,1,3.776,1.271,5.702,0.755   c5.775-1.548,11.729-2.332,17.697-2.332c32.369,0,60.486,22.996,66.855,54.679c0.792,3.938,4.532,6.524,8.466,5.929   c0.122-0.018,0.243-0.03,0.365-0.055c4.061-0.816,6.69-4.77,5.874-8.831c-7.771-38.662-42.073-66.723-81.561-66.723   c-4.837,0-9.666,0.422-14.429,1.26C338.67,35.322,290.435,0,235.746,0S132.821,35.322,116.025,86.751   c-4.763-0.837-9.592-1.26-14.429-1.26c-45.877,0-83.2,37.324-83.2,83.201s37.323,83.201,83.2,83.201h30c4.143,0,7.5-3.358,7.5-7.5   C139.096,240.251,135.739,236.893,131.596,236.893z" data-original="#000000" class="active-path" data-old_color="#000000" fill="#FFFFFF"/>
</g></g> </svg>
